<svg id="svg" version="1.1" width="400" height="400" viewBox="0 0 400 400" xmlns="http://www.w3.org/2000/svg" xmlns:xlink="http://www.w3.org/1999/xlink" ><g id="svgg"><path id="path0" d="M150.000 2.172 L 150.000 4.345 136.003 4.472 L 122.007 4.600 121.018 5.667 C 120.264 6.480,119.965 7.359,119.759 9.367 L 119.490 12.000 112.425 12.000 C 104.874 12.000,104.405 12.116,104.394 13.980 C 104.386 15.251,104.154 15.570,102.369 16.764 C 101.582 17.291,100.772 18.099,100.569 18.561 C 100.227 19.339,99.838 19.408,95.218 19.513 C 89.094 19.652,88.800 19.846,88.800 23.751 C 88.800 27.819,89.156 27.600,82.544 27.600 C 74.177 27.600,73.600 27.964,73.600 33.250 L 73.600 35.200 70.280 35.200 C 66.108 35.200,66.000 35.308,66.000 39.480 L 66.000 42.800 62.024 42.800 C 59.804 42.800,57.938 42.977,57.800 43.200 C 57.664 43.420,57.023 43.600,56.376 43.600 C 55.729 43.600,55.200 43.780,55.200 44.000 C 55.200 44.220,54.954 44.400,54.654 44.400 C 53.379 44.400,52.046 46.018,51.762 47.911 C 51.459 49.932,50.744 50.767,49.300 50.787 C 48.805 50.794,48.400 50.958,48.400 51.150 C 48.400 51.343,47.827 51.615,47.126 51.755 C 45.701 52.040,44.400 53.046,44.400 53.862 C 44.400 54.158,44.240 54.400,44.045 54.400 C 43.850 54.400,43.570 55.208,43.422 56.195 C 43.110 58.272,42.350 59.200,40.959 59.200 C 39.505 59.200,37.200 60.271,37.200 60.946 C 37.200 61.269,37.003 61.599,36.762 61.679 C 36.132 61.889,35.567 64.801,35.264 69.400 L 35.000 73.400 31.613 73.518 C 27.584 73.657,27.614 73.624,27.606 77.858 L 27.600 81.115 24.471 81.258 C 19.851 81.468,19.825 81.509,19.693 88.970 C 19.544 97.388,19.816 96.800,16.072 96.800 C 11.843 96.800,12.000 96.490,12.000 104.838 L 12.000 111.915 8.818 112.060 C 4.333 112.263,4.619 111.462,4.482 124.219 L 4.364 135.200 2.182 135.200 L 0.000 135.200 0.000 177.000 L 0.000 218.800 2.154 218.800 L 4.307 218.800 4.508 228.100 C 4.756 239.571,5.217 241.200,8.219 241.200 C 8.538 241.200,8.800 241.380,8.800 241.600 C 8.800 241.820,9.520 242.000,10.400 242.000 L 12.000 242.000 12.013 245.900 C 12.042 254.538,12.827 256.701,16.060 257.058 C 19.833 257.474,19.600 257.215,19.600 260.994 C 19.600 265.017,19.782 265.200,23.802 265.200 C 27.433 265.200,27.434 265.201,27.698 271.881 C 28.006 279.651,28.183 279.930,33.251 280.623 L 35.102 280.876 35.286 284.053 C 35.513 287.976,35.625 288.087,39.585 288.317 L 42.800 288.503 42.800 291.375 C 42.800 295.411,43.129 295.754,47.164 295.938 C 50.940 296.109,51.384 296.623,48.100 297.020 C 43.429 297.585,43.231 297.931,42.919 306.060 L 42.694 311.920 39.565 312.062 C 35.641 312.240,35.440 312.444,35.260 316.418 L 35.115 319.600 32.258 319.606 C 28.164 319.615,27.600 320.235,27.600 324.734 L 27.600 327.520 23.985 327.660 C 19.658 327.828,19.614 327.872,19.606 332.100 L 19.600 335.200 16.280 335.200 C 12.110 335.200,12.000 335.310,12.000 339.465 L 12.000 342.770 8.300 342.885 L 4.600 343.000 4.485 346.700 L 4.370 350.400 2.185 350.400 L 0.000 350.400 0.000 373.200 L 0.000 396.000 43.546 396.000 C 86.486 396.000,87.106 395.989,88.109 395.200 C 88.669 394.760,89.413 394.400,89.763 394.400 C 90.113 394.400,90.400 394.242,90.400 394.049 C 90.400 393.855,90.925 393.480,91.566 393.214 C 92.209 392.948,92.948 392.209,93.214 391.566 C 93.480 390.925,93.843 390.400,94.021 390.400 C 94.199 390.400,94.402 389.995,94.472 389.500 C 94.599 388.608,94.675 388.598,102.668 388.400 C 111.994 388.169,111.343 388.470,111.600 384.268 L 111.800 381.000 119.200 380.777 C 127.421 380.529,126.800 380.607,126.800 379.827 C 126.800 379.512,127.205 379.132,127.700 378.982 C 129.588 378.413,131.200 377.488,131.200 376.974 C 131.200 376.680,131.476 376.285,131.814 376.096 C 132.152 375.907,132.570 375.223,132.742 374.576 L 133.056 373.400 136.928 373.286 C 139.066 373.222,140.800 372.998,140.800 372.786 C 140.800 372.573,141.051 372.400,141.357 372.400 C 142.174 372.400,142.400 371.484,142.400 368.167 L 142.400 365.200 147.500 365.183 C 156.350 365.152,157.043 364.826,157.446 360.498 L 157.715 357.600 161.029 357.600 C 163.487 357.600,164.503 357.440,164.962 356.981 C 165.483 356.459,165.725 356.444,166.491 356.881 C 167.802 357.629,229.517 357.643,231.621 356.895 C 233.242 356.319,234.000 354.795,234.000 352.114 C 234.000 349.907,233.324 350.000,249.433 350.000 C 266.152 350.000,265.200 350.263,265.200 345.643 C 265.200 342.177,264.501 342.401,275.333 342.396 C 288.124 342.389,287.872 342.483,288.284 337.563 L 288.516 334.800 295.058 334.800 C 298.656 334.800,301.600 334.641,301.600 334.447 C 301.600 334.252,301.960 333.999,302.400 333.884 C 302.840 333.769,303.200 333.388,303.200 333.037 C 303.200 332.687,303.380 332.400,303.600 332.400 C 303.828 332.400,304.000 331.218,304.000 329.654 L 304.000 326.909 309.930 326.718 C 318.047 326.458,318.318 326.290,319.030 321.100 L 319.291 319.200 322.345 319.194 C 326.493 319.186,326.572 319.111,326.741 315.015 L 326.882 311.600 330.208 311.600 C 334.192 311.600,334.800 311.409,334.800 310.157 C 334.800 309.631,334.967 309.200,335.171 309.200 C 335.376 309.200,335.788 308.975,336.088 308.700 C 336.388 308.425,336.974 308.008,337.390 307.773 C 337.806 307.539,338.339 307.006,338.573 306.590 C 338.808 306.174,339.225 305.588,339.500 305.288 C 339.775 304.988,340.000 304.576,340.000 304.371 C 340.000 304.167,340.540 304.000,341.200 304.000 C 341.900 304.000,342.400 303.789,342.400 303.495 C 342.400 303.215,343.338 302.767,344.500 302.491 C 346.742 301.959,347.852 300.958,348.259 299.100 C 348.392 298.495,348.658 298.000,348.850 298.000 C 349.043 298.000,349.200 297.627,349.200 297.171 C 349.200 296.009,349.897 295.472,352.175 294.878 C 353.262 294.594,354.391 294.020,354.684 293.601 C 354.978 293.182,355.479 292.578,355.798 292.259 C 356.117 291.940,356.496 290.941,356.640 290.040 C 356.784 289.138,357.052 288.400,357.236 288.400 C 357.420 288.400,357.622 286.735,357.685 284.700 L 357.800 281.000 361.400 280.800 L 365.000 280.600 365.115 276.900 L 365.230 273.200 368.044 273.200 C 369.932 273.200,371.043 273.014,371.421 272.636 C 371.732 272.325,372.214 271.996,372.493 271.903 C 372.838 271.789,373.064 270.469,373.200 267.772 C 373.376 264.281,373.491 263.791,374.161 263.663 C 374.579 263.583,375.288 263.176,375.736 262.759 C 376.184 262.342,376.754 262.000,377.001 262.000 C 377.498 262.000,378.800 259.521,378.800 258.577 C 378.800 258.249,379.250 257.809,379.800 257.600 C 380.783 257.226,380.800 257.147,380.800 252.797 C 380.800 248.937,380.889 248.347,381.500 248.153 C 384.450 247.218,386.400 245.330,386.400 243.411 C 386.400 243.104,386.741 242.746,387.157 242.614 C 388.262 242.263,388.389 241.338,388.395 233.556 L 388.400 226.511 390.319 226.284 C 396.289 225.577,395.995 228.180,395.995 176.000 C 395.995 124.966,396.335 128.591,391.492 127.912 L 388.492 127.491 388.293 118.445 C 388.021 106.051,387.453 104.800,382.103 104.800 L 380.800 104.800 380.787 101.300 C 380.771 97.164,380.212 92.386,379.703 92.043 C 379.504 91.909,379.230 91.496,379.093 91.125 C 378.816 90.374,376.498 89.606,374.500 89.602 L 373.200 89.600 373.200 86.029 C 373.200 81.377,373.030 81.200,368.571 81.200 L 365.200 81.200 365.186 77.700 C 365.156 70.153,363.668 67.159,359.675 66.610 L 357.712 66.340 357.460 63.270 C 357.177 59.839,356.455 58.800,354.356 58.800 C 353.720 58.800,353.200 58.620,353.200 58.400 C 353.200 58.180,352.506 58.000,351.658 58.000 L 350.116 58.000 349.882 55.495 C 349.604 52.523,349.298 51.600,348.591 51.600 C 348.302 51.600,348.006 51.417,347.931 51.194 C 347.857 50.971,346.602 50.677,345.144 50.541 L 342.491 50.293 342.220 47.892 C 342.070 46.571,341.706 45.249,341.410 44.953 C 341.114 44.656,340.805 44.214,340.723 43.969 C 340.549 43.448,337.713 42.842,335.327 42.817 C 333.562 42.799,333.534 42.767,333.006 40.135 C 332.840 39.309,332.275 38.545,331.379 37.935 C 330.623 37.421,330.004 36.865,330.003 36.700 C 330.001 36.535,329.595 36.399,329.100 36.398 C 328.605 36.396,327.684 36.126,327.054 35.798 C 326.304 35.406,324.752 35.200,322.554 35.200 L 319.200 35.200 319.194 32.100 C 319.185 27.820,319.192 27.826,314.426 27.663 L 310.422 27.526 310.160 26.063 C 309.667 23.322,307.721 21.200,305.699 21.200 C 305.272 21.200,304.507 20.840,304.000 20.400 C 303.222 19.726,302.503 19.600,299.419 19.600 L 295.760 19.600 295.266 17.206 C 294.939 15.623,294.516 14.676,294.017 14.409 C 293.602 14.187,293.016 13.759,292.716 13.458 C 291.785 12.528,287.228 12.000,280.120 12.000 L 273.305 12.000 273.109 8.948 C 272.817 4.400,273.104 4.492,259.100 4.440 L 248.400 4.400 248.400 2.200 L 248.400 0.000 199.200 0.000 L 150.000 0.000 150.000 2.172 M235.602 43.700 C 235.605 45.367,236.332 48.000,236.790 48.000 C 236.984 48.000,237.412 48.269,237.740 48.597 C 238.669 49.526,243.119 49.983,251.300 49.992 L 258.800 50.000 258.800 51.906 C 258.800 56.424,259.932 57.088,268.269 57.465 C 274.440 57.745,274.379 57.716,274.395 60.300 C 274.398 60.795,274.558 61.200,274.751 61.200 C 274.945 61.200,275.326 61.739,275.599 62.398 C 275.978 63.314,276.486 63.697,277.748 64.024 C 278.657 64.259,279.953 64.620,280.628 64.826 C 281.304 65.032,283.419 65.200,285.328 65.200 L 288.800 65.200 288.800 67.600 C 288.800 68.933,288.978 70.000,289.200 70.000 C 289.420 70.000,289.600 70.324,289.600 70.720 C 289.600 71.642,290.358 72.400,291.280 72.400 C 291.676 72.400,292.000 72.572,292.000 72.782 C 292.000 72.992,293.211 73.217,294.692 73.282 L 297.384 73.400 297.716 75.400 C 298.063 77.491,299.464 79.156,300.900 79.186 C 301.285 79.194,301.600 79.380,301.600 79.600 C 301.600 79.820,302.104 80.000,302.720 80.000 C 303.336 80.000,304.012 80.172,304.223 80.383 C 304.434 80.594,306.225 80.819,308.203 80.883 L 311.800 81.000 312.000 84.600 L 312.200 88.200 315.900 88.315 L 319.600 88.430 319.600 92.052 C 319.600 95.266,319.685 95.697,320.354 95.872 C 320.864 96.005,321.188 96.565,321.352 97.593 C 321.684 99.665,323.952 101.919,326.042 102.253 L 327.600 102.502 327.610 104.751 C 327.632 110.023,328.432 111.149,332.394 111.481 L 335.200 111.716 335.200 115.271 C 335.200 118.061,335.329 118.875,335.800 119.055 C 336.130 119.182,336.400 119.701,336.400 120.209 C 336.400 120.718,336.552 121.193,336.738 121.267 C 336.924 121.340,337.330 121.938,337.642 122.596 C 337.953 123.254,338.746 124.047,339.404 124.358 C 340.062 124.670,340.660 125.076,340.733 125.262 C 340.807 125.448,341.302 125.600,341.833 125.600 C 342.795 125.600,342.800 125.623,342.813 129.900 C 342.833 136.335,343.326 139.477,344.464 140.414 C 344.979 140.838,345.606 141.358,345.858 141.569 C 346.110 141.780,347.190 142.008,348.258 142.076 L 350.200 142.200 350.302 177.100 L 350.404 212.000 349.022 212.000 C 343.411 212.000,343.196 212.321,342.854 221.200 L 342.600 227.800 341.000 227.901 C 336.145 228.208,335.689 228.948,335.328 237.100 L 335.075 242.800 332.214 242.800 C 328.193 242.800,327.845 243.132,327.663 247.149 L 327.517 250.370 325.158 250.637 C 323.861 250.783,322.800 251.060,322.800 251.252 C 322.800 251.443,322.562 251.600,322.272 251.600 C 321.128 251.600,320.108 253.466,319.829 256.067 L 319.552 258.650 317.175 259.141 C 315.320 259.524,314.646 259.870,314.108 260.716 C 313.729 261.312,313.305 261.890,313.166 262.000 C 313.027 262.110,312.751 263.100,312.553 264.200 L 312.193 266.200 310.080 266.458 C 305.935 266.965,304.800 268.176,304.800 272.089 L 304.800 273.486 301.549 273.709 C 297.477 273.988,297.211 274.242,296.916 278.141 L 296.685 281.200 293.431 281.200 C 289.199 281.200,288.800 281.597,288.800 285.805 L 288.800 288.800 282.200 288.800 C 278.067 288.800,275.600 288.949,275.600 289.200 C 275.600 289.420,275.336 289.600,275.014 289.600 C 274.048 289.600,273.600 290.986,273.600 293.974 L 273.600 296.800 266.819 296.800 C 259.214 296.800,258.000 297.078,258.000 298.820 C 258.000 299.594,257.582 300.244,256.561 301.056 C 255.769 301.685,254.873 302.679,254.569 303.263 L 254.017 304.327 242.509 304.487 C 228.189 304.685,228.448 304.590,227.787 309.900 L 227.525 312.000 185.629 312.000 C 141.114 312.000,139.980 312.045,138.006 313.875 C 137.457 314.384,136.878 314.800,136.720 314.800 C 136.561 314.800,136.208 315.880,135.936 317.200 L 135.440 319.600 133.170 319.600 C 128.231 319.600,127.600 320.212,127.600 325.002 L 127.600 327.485 122.500 327.719 C 116.659 327.986,114.604 328.466,113.945 329.718 C 113.689 330.203,113.322 330.704,113.130 330.830 C 112.937 330.957,112.669 331.992,112.534 333.130 L 112.289 335.200 108.644 335.214 C 101.003 335.244,97.958 336.743,97.407 340.746 L 97.132 342.749 90.188 342.875 C 81.745 343.027,81.519 343.148,81.263 347.682 L 81.110 350.400 73.055 350.330 C 67.170 350.279,65.970 350.198,68.600 350.030 C 73.292 349.730,73.200 349.814,73.200 345.817 L 73.200 342.482 76.567 342.341 C 80.716 342.167,80.571 342.325,80.737 337.820 L 80.874 334.104 82.937 333.890 C 87.797 333.386,88.003 332.881,88.288 320.753 L 88.500 311.706 91.319 311.444 C 95.950 311.013,95.950 311.013,95.965 294.400 C 95.981 275.252,95.627 274.000,90.192 274.000 L 88.503 274.000 88.316 270.779 C 88.078 266.661,87.773 266.342,83.827 266.089 L 80.800 265.895 80.753 263.847 C 80.670 260.280,80.350 259.444,78.900 259.017 C 78.185 258.807,77.600 258.492,77.600 258.317 C 77.600 258.143,76.610 258.000,75.400 258.000 L 73.200 258.000 73.200 255.218 C 73.200 251.237,72.328 250.400,68.182 250.400 L 65.200 250.400 65.200 247.049 C 65.200 242.964,65.111 242.872,60.981 242.718 L 57.800 242.600 57.600 235.719 C 57.364 227.596,57.506 227.856,53.205 227.661 L 50.046 227.517 49.865 219.659 C 49.680 211.640,49.390 208.800,48.756 208.800 C 48.560 208.800,48.400 208.539,48.400 208.221 C 48.400 207.325,46.681 205.681,45.480 205.428 C 44.886 205.302,43.950 205.107,43.400 204.992 L 42.400 204.785 42.406 175.892 C 42.412 146.328,42.416 146.265,44.038 145.456 C 44.558 145.197,45.197 144.558,45.456 144.038 C 46.061 142.825,46.729 142.414,48.110 142.406 C 49.753 142.397,50.000 141.250,50.000 133.626 L 50.000 126.903 52.750 126.632 C 57.227 126.191,57.552 125.522,57.583 116.700 L 57.600 111.600 60.700 111.594 C 64.898 111.586,64.972 111.516,65.141 107.415 C 65.277 104.117,65.315 104.000,66.241 104.000 C 66.768 104.000,67.200 103.820,67.200 103.600 C 67.200 103.380,67.728 103.200,68.374 103.200 C 70.111 103.200,71.650 102.497,71.885 101.595 C 72.000 101.158,72.231 100.800,72.400 100.800 C 72.569 100.800,72.836 99.585,72.995 98.100 C 73.292 95.317,73.602 94.817,75.036 94.806 C 76.365 94.796,78.744 92.507,79.034 90.958 C 79.174 90.211,79.449 89.600,79.645 89.600 C 79.840 89.600,80.000 89.349,80.000 89.043 C 80.000 88.372,80.519 88.151,82.955 87.786 C 85.567 87.394,87.430 85.492,87.794 82.845 L 88.062 80.896 90.531 80.624 C 95.125 80.116,95.317 79.930,95.827 75.500 L 96.092 73.200 99.064 73.200 C 103.233 73.200,104.000 72.434,104.000 68.272 L 104.000 65.307 110.100 65.108 C 118.388 64.836,118.428 64.814,119.011 59.940 L 119.282 57.681 125.741 57.509 C 133.119 57.314,133.486 57.216,133.834 55.361 C 133.974 54.613,134.249 54.000,134.445 54.000 C 134.640 54.000,134.800 53.118,134.800 52.040 L 134.800 50.081 144.700 49.891 C 157.351 49.649,156.833 49.860,157.427 44.700 L 157.692 42.400 196.646 42.400 L 235.600 42.400 235.602 43.700 M168.200 73.951 C 166.756 74.259,166.057 75.911,166.023 79.100 L 166.000 81.200 163.029 81.200 C 160.059 81.200,159.944 81.245,158.500 82.969 C 158.200 83.327,158.000 84.736,158.000 86.492 L 158.000 89.417 155.579 89.877 C 152.653 90.433,152.101 90.846,151.753 92.740 C 151.605 93.543,151.286 94.328,151.042 94.485 C 150.534 94.813,150.390 148.923,150.896 149.429 C 151.058 149.591,151.867 149.834,152.693 149.969 C 153.805 150.149,154.331 150.496,154.718 151.303 C 155.005 151.903,155.636 152.604,156.120 152.862 C 157.775 153.743,157.974 154.415,157.987 159.153 C 158.003 164.923,158.224 165.200,162.812 165.200 L 165.901 165.200 166.064 169.900 C 166.153 172.485,166.157 176.065,166.073 177.856 L 165.919 181.112 161.689 181.269 C 158.839 181.374,157.405 181.584,157.296 181.913 C 157.206 182.181,156.719 182.400,156.213 182.400 C 153.699 182.400,151.600 184.436,151.600 186.874 C 151.600 188.426,150.667 188.800,146.800 188.800 C 144.083 188.800,142.989 188.954,142.543 189.400 C 142.213 189.730,141.500 190.000,140.959 190.000 C 139.475 190.000,137.200 191.077,137.200 191.780 C 137.200 192.121,137.032 192.400,136.827 192.400 C 136.418 192.400,136.201 193.025,135.817 195.300 L 135.564 196.800 132.210 196.800 C 127.840 196.800,127.600 197.031,127.600 201.229 L 127.600 204.400 124.374 204.400 C 119.728 204.400,119.600 204.513,119.600 208.614 L 119.600 212.000 117.700 212.002 C 111.992 212.009,112.005 211.971,112.002 228.074 C 112.000 240.712,112.182 242.400,113.551 242.400 C 114.039 242.400,114.468 242.819,114.719 243.540 C 115.225 244.992,116.996 246.771,118.436 247.273 C 119.224 247.547,119.589 247.977,119.676 248.731 C 119.800 249.799,119.803 249.800,123.700 249.914 L 127.600 250.029 127.606 253.114 C 127.615 257.739,126.576 257.370,140.223 257.600 L 152.075 257.800 152.597 259.318 C 153.114 260.824,154.969 262.799,155.867 262.800 C 156.123 262.800,156.393 262.935,156.467 263.100 C 157.316 265.012,156.920 264.991,195.200 265.132 C 240.445 265.298,240.223 265.323,241.036 260.000 C 241.415 257.519,240.934 257.613,253.282 257.606 L 264.364 257.600 265.364 256.600 C 265.914 256.050,266.480 255.600,266.621 255.600 C 267.314 255.600,269.600 254.252,269.600 253.843 C 269.600 253.587,269.960 253.070,270.400 252.693 C 270.840 252.316,271.200 251.657,271.200 251.228 C 271.200 250.169,271.486 250.046,274.940 249.608 C 280.649 248.884,280.769 248.421,280.788 227.149 C 280.802 210.775,281.165 212.089,276.581 211.918 L 273.400 211.800 273.200 208.200 L 273.000 204.600 270.000 204.499 C 264.969 204.329,265.200 204.515,265.200 200.635 C 265.200 196.703,265.310 196.800,260.819 196.800 L 257.703 196.800 257.432 194.050 C 257.100 190.680,256.645 190.010,254.486 189.721 C 253.559 189.596,252.800 189.338,252.800 189.147 C 252.800 188.956,250.479 188.800,247.643 188.800 C 241.959 188.800,242.000 188.819,242.000 186.167 C 242.000 185.415,241.820 184.800,241.600 184.800 C 241.380 184.800,241.200 184.476,241.200 184.080 C 241.200 183.170,240.445 182.400,239.553 182.400 C 239.176 182.400,238.801 182.203,238.721 181.962 C 238.628 181.684,236.415 181.442,232.687 181.303 L 226.800 181.082 226.800 176.787 L 226.800 172.491 228.652 172.213 C 232.290 171.668,233.266 170.698,233.807 167.095 C 233.963 166.053,234.250 165.200,234.445 165.200 C 234.640 165.200,234.800 163.513,234.800 161.452 L 234.800 157.703 237.544 157.433 C 239.838 157.207,240.445 156.985,241.244 156.081 L 242.200 155.000 242.320 123.800 C 242.450 89.968,242.456 90.130,240.982 89.760 C 240.442 89.624,240.000 89.353,240.000 89.157 C 240.000 88.960,238.830 88.800,237.400 88.800 L 234.800 88.800 234.800 85.805 C 234.800 81.593,234.403 81.200,230.153 81.200 L 226.885 81.200 226.738 77.964 C 226.618 75.337,226.446 74.623,225.819 74.164 C 225.006 73.570,170.922 73.370,168.200 73.951 " stroke="none" fill="#000000" fill-rule="evenodd"></path><path id="path1" d="M150.000 2.172 L 150.000 4.345 136.003 4.472 L 122.007 4.600 121.018 5.667 C 120.264 6.480,119.965 7.359,119.759 9.367 L 119.490 12.000 112.425 12.000 C 104.874 12.000,104.405 12.116,104.394 13.980 C 104.386 15.251,104.154 15.570,102.369 16.764 C 101.582 17.291,100.772 18.099,100.569 18.561 C 100.227 19.339,99.838 19.408,95.218 19.513 C 89.094 19.652,88.800 19.846,88.800 23.751 C 88.800 27.819,89.156 27.600,82.544 27.600 C 74.177 27.600,73.600 27.964,73.600 33.250 L 73.600 35.200 70.280 35.200 C 66.108 35.200,66.000 35.308,66.000 39.480 L 66.000 42.800 62.024 42.800 C 59.804 42.800,57.938 42.977,57.800 43.200 C 57.664 43.420,57.023 43.600,56.376 43.600 C 55.729 43.600,55.200 43.780,55.200 44.000 C 55.200 44.220,54.954 44.400,54.654 44.400 C 53.379 44.400,52.046 46.018,51.762 47.911 C 51.459 49.932,50.744 50.767,49.300 50.787 C 48.805 50.794,48.400 50.958,48.400 51.150 C 48.400 51.343,47.827 51.615,47.126 51.755 C 45.701 52.040,44.400 53.046,44.400 53.862 C 44.400 54.158,44.240 54.400,44.045 54.400 C 43.850 54.400,43.570 55.208,43.422 56.195 C 43.110 58.272,42.350 59.200,40.959 59.200 C 39.505 59.200,37.200 60.271,37.200 60.946 C 37.200 61.269,37.003 61.599,36.762 61.679 C 36.132 61.889,35.567 64.801,35.264 69.400 L 35.000 73.400 31.613 73.518 C 27.584 73.657,27.614 73.624,27.606 77.858 L 27.600 81.115 24.471 81.258 C 19.851 81.468,19.825 81.509,19.693 88.970 C 19.544 97.388,19.816 96.800,16.072 96.800 C 11.843 96.800,12.000 96.490,12.000 104.838 L 12.000 111.915 8.818 112.060 C 4.333 112.263,4.619 111.462,4.482 124.219 L 4.364 135.200 2.182 135.200 L 0.000 135.200 0.000 177.000 L 0.000 218.800 2.154 218.800 L 4.307 218.800 4.508 228.100 C 4.756 239.571,5.217 241.200,8.219 241.200 C 8.538 241.200,8.800 241.380,8.800 241.600 C 8.800 241.820,9.520 242.000,10.400 242.000 L 12.000 242.000 12.013 245.900 C 12.042 254.538,12.827 256.701,16.060 257.058 C 19.833 257.474,19.600 257.215,19.600 260.994 C 19.600 265.017,19.782 265.200,23.802 265.200 C 27.433 265.200,27.434 265.201,27.698 271.881 C 28.006 279.651,28.183 279.930,33.251 280.623 L 35.102 280.876 35.286 284.053 C 35.513 287.976,35.625 288.087,39.585 288.317 L 42.800 288.503 42.800 291.375 C 42.800 295.411,43.129 295.754,47.164 295.938 C 50.940 296.109,51.384 296.623,48.100 297.020 C 43.429 297.585,43.231 297.931,42.919 306.060 L 42.694 311.920 39.565 312.062 C 35.641 312.240,35.440 312.444,35.260 316.418 L 35.115 319.600 32.258 319.606 C 28.164 319.615,27.600 320.235,27.600 324.734 L 27.600 327.520 23.985 327.660 C 19.658 327.828,19.614 327.872,19.606 332.100 L 19.600 335.200 16.280 335.200 C 12.110 335.200,12.000 335.310,12.000 339.465 L 12.000 342.770 8.300 342.885 L 4.600 343.000 4.485 346.700 L 4.370 350.400 2.185 350.400 L 0.000 350.400 0.000 373.200 L 0.000 396.000 43.546 396.000 C 86.486 396.000,87.106 395.989,88.109 395.200 C 88.669 394.760,89.413 394.400,89.763 394.400 C 90.113 394.400,90.400 394.242,90.400 394.049 C 90.400 393.855,90.925 393.480,91.566 393.214 C 92.209 392.948,92.948 392.209,93.214 391.566 C 93.480 390.925,93.843 390.400,94.021 390.400 C 94.199 390.400,94.402 389.995,94.472 389.500 C 94.599 388.608,94.675 388.598,102.668 388.400 C 111.994 388.169,111.343 388.470,111.600 384.268 L 111.800 381.000 119.200 380.777 C 127.421 380.529,126.800 380.607,126.800 379.827 C 126.800 379.512,127.205 379.132,127.700 378.982 C 129.588 378.413,131.200 377.488,131.200 376.974 C 131.200 376.680,131.476 376.285,131.814 376.096 C 132.152 375.907,132.570 375.223,132.742 374.576 L 133.056 373.400 136.928 373.286 C 139.066 373.222,140.800 372.998,140.800 372.786 C 140.800 372.573,141.051 372.400,141.357 372.400 C 142.174 372.400,142.400 371.484,142.400 368.167 L 142.400 365.200 147.500 365.183 C 156.350 365.152,157.043 364.826,157.446 360.498 L 157.715 357.600 161.029 357.600 C 163.487 357.600,164.503 357.440,164.962 356.981 C 165.483 356.459,165.725 356.444,166.491 356.881 C 167.802 357.629,229.517 357.643,231.621 356.895 C 233.242 356.319,234.000 354.795,234.000 352.114 C 234.000 349.907,233.324 350.000,249.433 350.000 C 266.152 350.000,265.200 350.263,265.200 345.643 C 265.200 342.177,264.501 342.401,275.333 342.396 C 288.124 342.389,287.872 342.483,288.284 337.563 L 288.516 334.800 295.058 334.800 C 298.656 334.800,301.600 334.641,301.600 334.447 C 301.600 334.252,301.960 333.999,302.400 333.884 C 302.840 333.769,303.200 333.388,303.200 333.037 C 303.200 332.687,303.380 332.400,303.600 332.400 C 303.828 332.400,304.000 331.218,304.000 329.654 L 304.000 326.909 309.930 326.718 C 318.047 326.458,318.318 326.290,319.030 321.100 L 319.291 319.200 322.345 319.194 C 326.493 319.186,326.572 319.111,326.741 315.015 L 326.882 311.600 330.208 311.600 C 334.192 311.600,334.800 311.409,334.800 310.157 C 334.800 309.631,334.967 309.200,335.171 309.200 C 335.376 309.200,335.788 308.975,336.088 308.700 C 336.388 308.425,336.974 308.008,337.390 307.773 C 337.806 307.539,338.339 307.006,338.573 306.590 C 338.808 306.174,339.225 305.588,339.500 305.288 C 339.775 304.988,340.000 304.576,340.000 304.371 C 340.000 304.167,340.540 304.000,341.200 304.000 C 341.900 304.000,342.400 303.789,342.400 303.495 C 342.400 303.215,343.338 302.767,344.500 302.491 C 346.742 301.959,347.852 300.958,348.259 299.100 C 348.392 298.495,348.658 298.000,348.850 298.000 C 349.043 298.000,349.200 297.627,349.200 297.171 C 349.200 296.009,349.897 295.472,352.175 294.878 C 353.262 294.594,354.391 294.020,354.684 293.601 C 354.978 293.182,355.479 292.578,355.798 292.259 C 356.117 291.940,356.496 290.941,356.640 290.040 C 356.784 289.138,357.052 288.400,357.236 288.400 C 357.420 288.400,357.622 286.735,357.685 284.700 L 357.800 281.000 361.400 280.800 L 365.000 280.600 365.115 276.900 L 365.230 273.200 368.044 273.200 C 369.932 273.200,371.043 273.014,371.421 272.636 C 371.732 272.325,372.214 271.996,372.493 271.903 C 372.838 271.789,373.064 270.469,373.200 267.772 C 373.376 264.281,373.491 263.791,374.161 263.663 C 374.579 263.583,375.288 263.176,375.736 262.759 C 376.184 262.342,376.754 262.000,377.001 262.000 C 377.498 262.000,378.800 259.521,378.800 258.577 C 378.800 258.249,379.250 257.809,379.800 257.600 C 380.783 257.226,380.800 257.147,380.800 252.797 C 380.800 248.937,380.889 248.347,381.500 248.153 C 384.450 247.218,386.400 245.330,386.400 243.411 C 386.400 243.104,386.741 242.746,387.157 242.614 C 388.262 242.263,388.389 241.338,388.395 233.556 L 388.400 226.511 390.319 226.284 C 396.289 225.577,395.995 228.180,395.995 176.000 C 395.995 124.966,396.335 128.591,391.492 127.912 L 388.492 127.491 388.293 118.445 C 388.021 106.051,387.453 104.800,382.103 104.800 L 380.800 104.800 380.787 101.300 C 380.771 97.164,380.212 92.386,379.703 92.043 C 379.504 91.909,379.230 91.496,379.093 91.125 C 378.816 90.374,376.498 89.606,374.500 89.602 L 373.200 89.600 373.200 86.029 C 373.200 81.377,373.030 81.200,368.571 81.200 L 365.200 81.200 365.186 77.700 C 365.156 70.153,363.668 67.159,359.675 66.610 L 357.712 66.340 357.460 63.270 C 357.177 59.839,356.455 58.800,354.356 58.800 C 353.720 58.800,353.200 58.620,353.200 58.400 C 353.200 58.180,352.506 58.000,351.658 58.000 L 350.116 58.000 349.882 55.495 C 349.604 52.523,349.298 51.600,348.591 51.600 C 348.302 51.600,348.006 51.417,347.931 51.194 C 347.857 50.971,346.602 50.677,345.144 50.541 L 342.491 50.293 342.220 47.892 C 342.070 46.571,341.706 45.249,341.410 44.953 C 341.114 44.656,340.805 44.214,340.723 43.969 C 340.549 43.448,337.713 42.842,335.327 42.817 C 333.562 42.799,333.534 42.767,333.006 40.135 C 332.840 39.309,332.275 38.545,331.379 37.935 C 330.623 37.421,330.004 36.865,330.003 36.700 C 330.001 36.535,329.595 36.399,329.100 36.398 C 328.605 36.396,327.684 36.126,327.054 35.798 C 326.304 35.406,324.752 35.200,322.554 35.200 L 319.200 35.200 319.194 32.100 C 319.185 27.820,319.192 27.826,314.426 27.663 L 310.422 27.526 310.160 26.063 C 309.667 23.322,307.721 21.200,305.699 21.200 C 305.272 21.200,304.507 20.840,304.000 20.400 C 303.222 19.726,302.503 19.600,299.419 19.600 L 295.760 19.600 295.266 17.206 C 294.939 15.623,294.516 14.676,294.017 14.409 C 293.602 14.187,293.016 13.759,292.716 13.458 C 291.785 12.528,287.228 12.000,280.120 12.000 L 273.305 12.000 273.109 8.948 C 272.817 4.400,273.104 4.492,259.100 4.440 L 248.400 4.400 248.400 2.200 L 248.400 0.000 199.200 0.000 L 150.000 0.000 150.000 2.172 M235.602 43.700 C 235.605 45.367,236.332 48.000,236.790 48.000 C 236.984 48.000,237.412 48.269,237.740 48.597 C 238.669 49.526,243.119 49.983,251.300 49.992 L 258.800 50.000 258.800 51.906 C 258.800 56.424,259.932 57.088,268.269 57.465 C 274.440 57.745,274.379 57.716,274.395 60.300 C 274.398 60.795,274.558 61.200,274.751 61.200 C 274.945 61.200,275.326 61.739,275.599 62.398 C 275.978 63.314,276.486 63.697,277.748 64.024 C 278.657 64.259,279.953 64.620,280.628 64.826 C 281.304 65.032,283.419 65.200,285.328 65.200 L 288.800 65.200 288.800 67.600 C 288.800 68.933,288.978 70.000,289.200 70.000 C 289.420 70.000,289.600 70.324,289.600 70.720 C 289.600 71.642,290.358 72.400,291.280 72.400 C 291.676 72.400,292.000 72.572,292.000 72.782 C 292.000 72.992,293.211 73.217,294.692 73.282 L 297.384 73.400 297.716 75.400 C 298.063 77.491,299.464 79.156,300.900 79.186 C 301.285 79.194,301.600 79.380,301.600 79.600 C 301.600 79.820,302.104 80.000,302.720 80.000 C 303.336 80.000,304.012 80.172,304.223 80.383 C 304.434 80.594,306.225 80.819,308.203 80.883 L 311.800 81.000 312.000 84.600 L 312.200 88.200 315.900 88.315 L 319.600 88.430 319.600 92.052 C 319.600 95.266,319.685 95.697,320.354 95.872 C 320.864 96.005,321.188 96.565,321.352 97.593 C 321.684 99.665,323.952 101.919,326.042 102.253 L 327.600 102.502 327.610 104.751 C 327.632 110.023,328.432 111.149,332.394 111.481 L 335.200 111.716 335.200 115.271 C 335.200 118.061,335.329 118.875,335.800 119.055 C 336.130 119.182,336.400 119.701,336.400 120.209 C 336.400 120.718,336.552 121.193,336.738 121.267 C 336.924 121.340,337.330 121.938,337.642 122.596 C 337.953 123.254,338.746 124.047,339.404 124.358 C 340.062 124.670,340.660 125.076,340.733 125.262 C 340.807 125.448,341.302 125.600,341.833 125.600 C 342.795 125.600,342.800 125.623,342.813 129.900 C 342.833 136.335,343.326 139.477,344.464 140.414 C 344.979 140.838,345.606 141.358,345.858 141.569 C 346.110 141.780,347.190 142.008,348.258 142.076 L 350.200 142.200 350.302 177.100 L 350.404 212.000 349.022 212.000 C 343.411 212.000,343.196 212.321,342.854 221.200 L 342.600 227.800 341.000 227.901 C 336.145 228.208,335.689 228.948,335.328 237.100 L 335.075 242.800 332.214 242.800 C 328.193 242.800,327.845 243.132,327.663 247.149 L 327.517 250.370 325.158 250.637 C 323.861 250.783,322.800 251.060,322.800 251.252 C 322.800 251.443,322.562 251.600,322.272 251.600 C 321.128 251.600,320.108 253.466,319.829 256.067 L 319.552 258.650 317.175 259.141 C 315.320 259.524,314.646 259.870,314.108 260.716 C 313.729 261.312,313.305 261.890,313.166 262.000 C 313.027 262.110,312.751 263.100,312.553 264.200 L 312.193 266.200 310.080 266.458 C 305.935 266.965,304.800 268.176,304.800 272.089 L 304.800 273.486 301.549 273.709 C 297.477 273.988,297.211 274.242,296.916 278.141 L 296.685 281.200 293.431 281.200 C 289.199 281.200,288.800 281.597,288.800 285.805 L 288.800 288.800 282.200 288.800 C 278.067 288.800,275.600 288.949,275.600 289.200 C 275.600 289.420,275.336 289.600,275.014 289.600 C 274.048 289.600,273.600 290.986,273.600 293.974 L 273.600 296.800 266.819 296.800 C 259.214 296.800,258.000 297.078,258.000 298.820 C 258.000 299.594,257.582 300.244,256.561 301.056 C 255.769 301.685,254.873 302.679,254.569 303.263 L 254.017 304.327 242.509 304.487 C 228.189 304.685,228.448 304.590,227.787 309.900 L 227.525 312.000 185.629 312.000 C 141.114 312.000,139.980 312.045,138.006 313.875 C 137.457 314.384,136.878 314.800,136.720 314.800 C 136.561 314.800,136.208 315.880,135.936 317.200 L 135.440 319.600 133.170 319.600 C 128.231 319.600,127.600 320.212,127.600 325.002 L 127.600 327.485 122.500 327.719 C 116.659 327.986,114.604 328.466,113.945 329.718 C 113.689 330.203,113.322 330.704,113.130 330.830 C 112.937 330.957,112.669 331.992,112.534 333.130 L 112.289 335.200 108.644 335.214 C 101.003 335.244,97.958 336.743,97.407 340.746 L 97.132 342.749 90.188 342.875 C 81.745 343.027,81.519 343.148,81.263 347.682 L 81.110 350.400 73.055 350.330 C 67.170 350.279,65.970 350.198,68.600 350.030 C 73.292 349.730,73.200 349.814,73.200 345.817 L 73.200 342.482 76.567 342.341 C 80.716 342.167,80.571 342.325,80.737 337.820 L 80.874 334.104 82.937 333.890 C 87.797 333.386,88.003 332.881,88.288 320.753 L 88.500 311.706 91.319 311.444 C 95.950 311.013,95.950 311.013,95.965 294.400 C 95.981 275.252,95.627 274.000,90.192 274.000 L 88.503 274.000 88.316 270.779 C 88.078 266.661,87.773 266.342,83.827 266.089 L 80.800 265.895 80.753 263.847 C 80.670 260.280,80.350 259.444,78.900 259.017 C 78.185 258.807,77.600 258.492,77.600 258.317 C 77.600 258.143,76.610 258.000,75.400 258.000 L 73.200 258.000 73.200 255.218 C 73.200 251.237,72.328 250.400,68.182 250.400 L 65.200 250.400 65.200 247.049 C 65.200 242.964,65.111 242.872,60.981 242.718 L 57.800 242.600 57.600 235.719 C 57.364 227.596,57.506 227.856,53.205 227.661 L 50.046 227.517 49.865 219.659 C 49.680 211.640,49.390 208.800,48.756 208.800 C 48.560 208.800,48.400 208.539,48.400 208.221 C 48.400 207.325,46.681 205.681,45.480 205.428 C 44.886 205.302,43.950 205.107,43.400 204.992 L 42.400 204.785 42.406 175.892 C 42.412 146.328,42.416 146.265,44.038 145.456 C 44.558 145.197,45.197 144.558,45.456 144.038 C 46.061 142.825,46.729 142.414,48.110 142.406 C 49.753 142.397,50.000 141.250,50.000 133.626 L 50.000 126.903 52.750 126.632 C 57.227 126.191,57.552 125.522,57.583 116.700 L 57.600 111.600 60.700 111.594 C 64.898 111.586,64.972 111.516,65.141 107.415 C 65.277 104.117,65.315 104.000,66.241 104.000 C 66.768 104.000,67.200 103.820,67.200 103.600 C 67.200 103.380,67.728 103.200,68.374 103.200 C 70.111 103.200,71.650 102.497,71.885 101.595 C 72.000 101.158,72.231 100.800,72.400 100.800 C 72.569 100.800,72.836 99.585,72.995 98.100 C 73.292 95.317,73.602 94.817,75.036 94.806 C 76.365 94.796,78.744 92.507,79.034 90.958 C 79.174 90.211,79.449 89.600,79.645 89.600 C 79.840 89.600,80.000 89.349,80.000 89.043 C 80.000 88.372,80.519 88.151,82.955 87.786 C 85.567 87.394,87.430 85.492,87.794 82.845 L 88.062 80.896 90.531 80.624 C 95.125 80.116,95.317 79.930,95.827 75.500 L 96.092 73.200 99.064 73.200 C 103.233 73.200,104.000 72.434,104.000 68.272 L 104.000 65.307 110.100 65.108 C 118.388 64.836,118.428 64.814,119.011 59.940 L 119.282 57.681 125.741 57.509 C 133.119 57.314,133.486 57.216,133.834 55.361 C 133.974 54.613,134.249 54.000,134.445 54.000 C 134.640 54.000,134.800 53.118,134.800 52.040 L 134.800 50.081 144.700 49.891 C 157.351 49.649,156.833 49.860,157.427 44.700 L 157.692 42.400 196.646 42.400 L 235.600 42.400 235.602 43.700 M168.200 73.951 C 166.756 74.259,166.057 75.911,166.023 79.100 L 166.000 81.200 163.029 81.200 C 160.059 81.200,159.944 81.245,158.500 82.969 C 158.200 83.327,158.000 84.736,158.000 86.492 L 158.000 89.417 155.579 89.877 C 152.653 90.433,152.101 90.846,151.753 92.740 C 151.605 93.543,151.286 94.328,151.042 94.485 C 150.534 94.813,150.390 148.923,150.896 149.429 C 151.058 149.591,151.867 149.834,152.693 149.969 C 153.805 150.149,154.331 150.496,154.718 151.303 C 155.005 151.903,155.636 152.604,156.120 152.862 C 157.775 153.743,157.974 154.415,157.987 159.153 C 158.003 164.923,158.224 165.200,162.812 165.200 L 165.901 165.200 166.064 169.900 C 166.153 172.485,166.157 176.065,166.073 177.856 L 165.919 181.112 161.689 181.269 C 158.839 181.374,157.405 181.584,157.296 181.913 C 157.206 182.181,156.719 182.400,156.213 182.400 C 153.699 182.400,151.600 184.436,151.600 186.874 C 151.600 188.426,150.667 188.800,146.800 188.800 C 144.083 188.800,142.989 188.954,142.543 189.400 C 142.213 189.730,141.500 190.000,140.959 190.000 C 139.475 190.000,137.200 191.077,137.200 191.780 C 137.200 192.121,137.032 192.400,136.827 192.400 C 136.418 192.400,136.201 193.025,135.817 195.300 L 135.564 196.800 132.210 196.800 C 127.840 196.800,127.600 197.031,127.600 201.229 L 127.600 204.400 124.374 204.400 C 119.728 204.400,119.600 204.513,119.600 208.614 L 119.600 212.000 117.700 212.002 C 111.992 212.009,112.005 211.971,112.002 228.074 C 112.000 240.712,112.182 242.400,113.551 242.400 C 114.039 242.400,114.468 242.819,114.719 243.540 C 115.225 244.992,116.996 246.771,118.436 247.273 C 119.224 247.547,119.589 247.977,119.676 248.731 C 119.800 249.799,119.803 249.800,123.700 249.914 L 127.600 250.029 127.606 253.114 C 127.615 257.739,126.576 257.370,140.223 257.600 L 152.075 257.800 152.597 259.318 C 153.114 260.824,154.969 262.799,155.867 262.800 C 156.123 262.800,156.393 262.935,156.467 263.100 C 157.316 265.012,156.920 264.991,195.200 265.132 C 240.445 265.298,240.223 265.323,241.036 260.000 C 241.415 257.519,240.934 257.613,253.282 257.606 L 264.364 257.600 265.364 256.600 C 265.914 256.050,266.480 255.600,266.621 255.600 C 267.314 255.600,269.600 254.252,269.600 253.843 C 269.600 253.587,269.960 253.070,270.400 252.693 C 270.840 252.316,271.200 251.657,271.200 251.228 C 271.200 250.169,271.486 250.046,274.940 249.608 C 280.649 248.884,280.769 248.421,280.788 227.149 C 280.802 210.775,281.165 212.089,276.581 211.918 L 273.400 211.800 273.200 208.200 L 273.000 204.600 270.000 204.499 C 264.969 204.329,265.200 204.515,265.200 200.635 C 265.200 196.703,265.310 196.800,260.819 196.800 L 257.703 196.800 257.432 194.050 C 257.100 190.680,256.645 190.010,254.486 189.721 C 253.559 189.596,252.800 189.338,252.800 189.147 C 252.800 188.956,250.479 188.800,247.643 188.800 C 241.959 188.800,242.000 188.819,242.000 186.167 C 242.000 185.415,241.820 184.800,241.600 184.800 C 241.380 184.800,241.200 184.476,241.200 184.080 C 241.200 183.170,240.445 182.400,239.553 182.400 C 239.176 182.400,238.801 182.203,238.721 181.962 C 238.628 181.684,236.415 181.442,232.687 181.303 L 226.800 181.082 226.800 176.787 L 226.800 172.491 228.652 172.213 C 232.290 171.668,233.266 170.698,233.807 167.095 C 233.963 166.053,234.250 165.200,234.445 165.200 C 234.640 165.200,234.800 163.513,234.800 161.452 L 234.800 157.703 237.544 157.433 C 239.838 157.207,240.445 156.985,241.244 156.081 L 242.200 155.000 242.320 123.800 C 242.450 89.968,242.456 90.130,240.982 89.760 C 240.442 89.624,240.000 89.353,240.000 89.157 C 240.000 88.960,238.830 88.800,237.400 88.800 L 234.800 88.800 234.800 85.805 C 234.800 81.593,234.403 81.200,230.153 81.200 L 226.885 81.200 226.738 77.964 C 226.618 75.337,226.446 74.623,225.819 74.164 C 225.006 73.570,170.922 73.370,168.200 73.951 " stroke="none" fill="#000000" fill-rule="evenodd"></path><path id="path2" d="M150.000 2.172 L 150.000 4.345 136.003 4.472 L 122.007 4.600 121.018 5.667 C 120.264 6.480,119.965 7.359,119.759 9.367 L 119.490 12.000 112.425 12.000 C 104.874 12.000,104.405 12.116,104.394 13.980 C 104.386 15.251,104.154 15.570,102.369 16.764 C 101.582 17.291,100.772 18.099,100.569 18.561 C 100.227 19.339,99.838 19.408,95.218 19.513 C 89.094 19.652,88.800 19.846,88.800 23.751 C 88.800 27.819,89.156 27.600,82.544 27.600 C 74.177 27.600,73.600 27.964,73.600 33.250 L 73.600 35.200 70.280 35.200 C 66.108 35.200,66.000 35.308,66.000 39.480 L 66.000 42.800 62.024 42.800 C 59.804 42.800,57.938 42.977,57.800 43.200 C 57.664 43.420,57.023 43.600,56.376 43.600 C 55.729 43.600,55.200 43.780,55.200 44.000 C 55.200 44.220,54.954 44.400,54.654 44.400 C 53.379 44.400,52.046 46.018,51.762 47.911 C 51.459 49.932,50.744 50.767,49.300 50.787 C 48.805 50.794,48.400 50.958,48.400 51.150 C 48.400 51.343,47.827 51.615,47.126 51.755 C 45.701 52.040,44.400 53.046,44.400 53.862 C 44.400 54.158,44.240 54.400,44.045 54.400 C 43.850 54.400,43.570 55.208,43.422 56.195 C 43.110 58.272,42.350 59.200,40.959 59.200 C 39.505 59.200,37.200 60.271,37.200 60.946 C 37.200 61.269,37.003 61.599,36.762 61.679 C 36.132 61.889,35.567 64.801,35.264 69.400 L 35.000 73.400 31.613 73.518 C 27.584 73.657,27.614 73.624,27.606 77.858 L 27.600 81.115 24.471 81.258 C 19.851 81.468,19.825 81.509,19.693 88.970 C 19.544 97.388,19.816 96.800,16.072 96.800 C 11.843 96.800,12.000 96.490,12.000 104.838 L 12.000 111.915 8.818 112.060 C 4.333 112.263,4.619 111.462,4.482 124.219 L 4.364 135.200 2.182 135.200 L 0.000 135.200 0.000 177.000 L 0.000 218.800 2.154 218.800 L 4.307 218.800 4.508 228.100 C 4.756 239.571,5.217 241.200,8.219 241.200 C 8.538 241.200,8.800 241.380,8.800 241.600 C 8.800 241.820,9.520 242.000,10.400 242.000 L 12.000 242.000 12.013 245.900 C 12.042 254.538,12.827 256.701,16.060 257.058 C 19.833 257.474,19.600 257.215,19.600 260.994 C 19.600 265.017,19.782 265.200,23.802 265.200 C 27.433 265.200,27.434 265.201,27.698 271.881 C 28.006 279.651,28.183 279.930,33.251 280.623 L 35.102 280.876 35.286 284.053 C 35.513 287.976,35.625 288.087,39.585 288.317 L 42.800 288.503 42.800 291.375 C 42.800 295.411,43.129 295.754,47.164 295.938 C 50.940 296.109,51.384 296.623,48.100 297.020 C 43.429 297.585,43.231 297.931,42.919 306.060 L 42.694 311.920 39.565 312.062 C 35.641 312.240,35.440 312.444,35.260 316.418 L 35.115 319.600 32.258 319.606 C 28.164 319.615,27.600 320.235,27.600 324.734 L 27.600 327.520 23.985 327.660 C 19.658 327.828,19.614 327.872,19.606 332.100 L 19.600 335.200 16.280 335.200 C 12.110 335.200,12.000 335.310,12.000 339.465 L 12.000 342.770 8.300 342.885 L 4.600 343.000 4.485 346.700 L 4.370 350.400 2.185 350.400 L 0.000 350.400 0.000 373.200 L 0.000 396.000 43.546 396.000 C 86.486 396.000,87.106 395.989,88.109 395.200 C 88.669 394.760,89.413 394.400,89.763 394.400 C 90.113 394.400,90.400 394.242,90.400 394.049 C 90.400 393.855,90.925 393.480,91.566 393.214 C 92.209 392.948,92.948 392.209,93.214 391.566 C 93.480 390.925,93.843 390.400,94.021 390.400 C 94.199 390.400,94.402 389.995,94.472 389.500 C 94.599 388.608,94.675 388.598,102.668 388.400 C 111.994 388.169,111.343 388.470,111.600 384.268 L 111.800 381.000 119.200 380.777 C 127.421 380.529,126.800 380.607,126.800 379.827 C 126.800 379.512,127.205 379.132,127.700 378.982 C 129.588 378.413,131.200 377.488,131.200 376.974 C 131.200 376.680,131.476 376.285,131.814 376.096 C 132.152 375.907,132.570 375.223,132.742 374.576 L 133.056 373.400 136.928 373.286 C 139.066 373.222,140.800 372.998,140.800 372.786 C 140.800 372.573,141.051 372.400,141.357 372.400 C 142.174 372.400,142.400 371.484,142.400 368.167 L 142.400 365.200 147.500 365.183 C 156.350 365.152,157.043 364.826,157.446 360.498 L 157.715 357.600 161.029 357.600 C 163.487 357.600,164.503 357.440,164.962 356.981 C 165.483 356.459,165.725 356.444,166.491 356.881 C 167.802 357.629,229.517 357.643,231.621 356.895 C 233.242 356.319,234.000 354.795,234.000 352.114 C 234.000 349.907,233.324 350.000,249.433 350.000 C 266.152 350.000,265.200 350.263,265.200 345.643 C 265.200 342.177,264.501 342.401,275.333 342.396 C 288.124 342.389,287.872 342.483,288.284 337.563 L 288.516 334.800 295.058 334.800 C 298.656 334.800,301.600 334.641,301.600 334.447 C 301.600 334.252,301.960 333.999,302.400 333.884 C 302.840 333.769,303.200 333.388,303.200 333.037 C 303.200 332.687,303.380 332.400,303.600 332.400 C 303.828 332.400,304.000 331.218,304.000 329.654 L 304.000 326.909 309.930 326.718 C 318.047 326.458,318.318 326.290,319.030 321.100 L 319.291 319.200 322.345 319.194 C 326.493 319.186,326.572 319.111,326.741 315.015 L 326.882 311.600 330.208 311.600 C 334.192 311.600,334.800 311.409,334.800 310.157 C 334.800 309.631,334.967 309.200,335.171 309.200 C 335.376 309.200,335.788 308.975,336.088 308.700 C 336.388 308.425,336.974 308.008,337.390 307.773 C 337.806 307.539,338.339 307.006,338.573 306.590 C 338.808 306.174,339.225 305.588,339.500 305.288 C 339.775 304.988,340.000 304.576,340.000 304.371 C 340.000 304.167,340.540 304.000,341.200 304.000 C 341.900 304.000,342.400 303.789,342.400 303.495 C 342.400 303.215,343.338 302.767,344.500 302.491 C 346.742 301.959,347.852 300.958,348.259 299.100 C 348.392 298.495,348.658 298.000,348.850 298.000 C 349.043 298.000,349.200 297.627,349.200 297.171 C 349.200 296.009,349.897 295.472,352.175 294.878 C 353.262 294.594,354.391 294.020,354.684 293.601 C 354.978 293.182,355.479 292.578,355.798 292.259 C 356.117 291.940,356.496 290.941,356.640 290.040 C 356.784 289.138,357.052 288.400,357.236 288.400 C 357.420 288.400,357.622 286.735,357.685 284.700 L 357.800 281.000 361.400 280.800 L 365.000 280.600 365.115 276.900 L 365.230 273.200 368.044 273.200 C 369.932 273.200,371.043 273.014,371.421 272.636 C 371.732 272.325,372.214 271.996,372.493 271.903 C 372.838 271.789,373.064 270.469,373.200 267.772 C 373.376 264.281,373.491 263.791,374.161 263.663 C 374.579 263.583,375.288 263.176,375.736 262.759 C 376.184 262.342,376.754 262.000,377.001 262.000 C 377.498 262.000,378.800 259.521,378.800 258.577 C 378.800 258.249,379.250 257.809,379.800 257.600 C 380.783 257.226,380.800 257.147,380.800 252.797 C 380.800 248.937,380.889 248.347,381.500 248.153 C 384.450 247.218,386.400 245.330,386.400 243.411 C 386.400 243.104,386.741 242.746,387.157 242.614 C 388.262 242.263,388.389 241.338,388.395 233.556 L 388.400 226.511 390.319 226.284 C 396.289 225.577,395.995 228.180,395.995 176.000 C 395.995 124.966,396.335 128.591,391.492 127.912 L 388.492 127.491 388.293 118.445 C 388.021 106.051,387.453 104.800,382.103 104.800 L 380.800 104.800 380.787 101.300 C 380.771 97.164,380.212 92.386,379.703 92.043 C 379.504 91.909,379.230 91.496,379.093 91.125 C 378.816 90.374,376.498 89.606,374.500 89.602 L 373.200 89.600 373.200 86.029 C 373.200 81.377,373.030 81.200,368.571 81.200 L 365.200 81.200 365.186 77.700 C 365.156 70.153,363.668 67.159,359.675 66.610 L 357.712 66.340 357.460 63.270 C 357.177 59.839,356.455 58.800,354.356 58.800 C 353.720 58.800,353.200 58.620,353.200 58.400 C 353.200 58.180,352.506 58.000,351.658 58.000 L 350.116 58.000 349.882 55.495 C 349.604 52.523,349.298 51.600,348.591 51.600 C 348.302 51.600,348.006 51.417,347.931 51.194 C 347.857 50.971,346.602 50.677,345.144 50.541 L 342.491 50.293 342.220 47.892 C 342.070 46.571,341.706 45.249,341.410 44.953 C 341.114 44.656,340.805 44.214,340.723 43.969 C 340.549 43.448,337.713 42.842,335.327 42.817 C 333.562 42.799,333.534 42.767,333.006 40.135 C 332.840 39.309,332.275 38.545,331.379 37.935 C 330.623 37.421,330.004 36.865,330.003 36.700 C 330.001 36.535,329.595 36.399,329.100 36.398 C 328.605 36.396,327.684 36.126,327.054 35.798 C 326.304 35.406,324.752 35.200,322.554 35.200 L 319.200 35.200 319.194 32.100 C 319.185 27.820,319.192 27.826,314.426 27.663 L 310.422 27.526 310.160 26.063 C 309.667 23.322,307.721 21.200,305.699 21.200 C 305.272 21.200,304.507 20.840,304.000 20.400 C 303.222 19.726,302.503 19.600,299.419 19.600 L 295.760 19.600 295.266 17.206 C 294.939 15.623,294.516 14.676,294.017 14.409 C 293.602 14.187,293.016 13.759,292.716 13.458 C 291.785 12.528,287.228 12.000,280.120 12.000 L 273.305 12.000 273.109 8.948 C 272.817 4.400,273.104 4.492,259.100 4.440 L 248.400 4.400 248.400 2.200 L 248.400 0.000 199.200 0.000 L 150.000 0.000 150.000 2.172 M235.602 43.700 C 235.605 45.367,236.332 48.000,236.790 48.000 C 236.984 48.000,237.412 48.269,237.740 48.597 C 238.669 49.526,243.119 49.983,251.300 49.992 L 258.800 50.000 258.800 51.906 C 258.800 56.424,259.932 57.088,268.269 57.465 C 274.440 57.745,274.379 57.716,274.395 60.300 C 274.398 60.795,274.558 61.200,274.751 61.200 C 274.945 61.200,275.326 61.739,275.599 62.398 C 275.978 63.314,276.486 63.697,277.748 64.024 C 278.657 64.259,279.953 64.620,280.628 64.826 C 281.304 65.032,283.419 65.200,285.328 65.200 L 288.800 65.200 288.800 67.600 C 288.800 68.933,288.978 70.000,289.200 70.000 C 289.420 70.000,289.600 70.324,289.600 70.720 C 289.600 71.642,290.358 72.400,291.280 72.400 C 291.676 72.400,292.000 72.572,292.000 72.782 C 292.000 72.992,293.211 73.217,294.692 73.282 L 297.384 73.400 297.716 75.400 C 298.063 77.491,299.464 79.156,300.900 79.186 C 301.285 79.194,301.600 79.380,301.600 79.600 C 301.600 79.820,302.104 80.000,302.720 80.000 C 303.336 80.000,304.012 80.172,304.223 80.383 C 304.434 80.594,306.225 80.819,308.203 80.883 L 311.800 81.000 312.000 84.600 L 312.200 88.200 315.900 88.315 L 319.600 88.430 319.600 92.052 C 319.600 95.266,319.685 95.697,320.354 95.872 C 320.864 96.005,321.188 96.565,321.352 97.593 C 321.684 99.665,323.952 101.919,326.042 102.253 L 327.600 102.502 327.610 104.751 C 327.632 110.023,328.432 111.149,332.394 111.481 L 335.200 111.716 335.200 115.271 C 335.200 118.061,335.329 118.875,335.800 119.055 C 336.130 119.182,336.400 119.701,336.400 120.209 C 336.400 120.718,336.552 121.193,336.738 121.267 C 336.924 121.340,337.330 121.938,337.642 122.596 C 337.953 123.254,338.746 124.047,339.404 124.358 C 340.062 124.670,340.660 125.076,340.733 125.262 C 340.807 125.448,341.302 125.600,341.833 125.600 C 342.795 125.600,342.800 125.623,342.813 129.900 C 342.833 136.335,343.326 139.477,344.464 140.414 C 344.979 140.838,345.606 141.358,345.858 141.569 C 346.110 141.780,347.190 142.008,348.258 142.076 L 350.200 142.200 350.302 177.100 L 350.404 212.000 349.022 212.000 C 343.411 212.000,343.196 212.321,342.854 221.200 L 342.600 227.800 341.000 227.901 C 336.145 228.208,335.689 228.948,335.328 237.100 L 335.075 242.800 332.214 242.800 C 328.193 242.800,327.845 243.132,327.663 247.149 L 327.517 250.370 325.158 250.637 C 323.861 250.783,322.800 251.060,322.800 251.252 C 322.800 251.443,322.562 251.600,322.272 251.600 C 321.128 251.600,320.108 253.466,319.829 256.067 L 319.552 258.650 317.175 259.141 C 315.320 259.524,314.646 259.870,314.108 260.716 C 313.729 261.312,313.305 261.890,313.166 262.000 C 313.027 262.110,312.751 263.100,312.553 264.200 L 312.193 266.200 310.080 266.458 C 305.935 266.965,304.800 268.176,304.800 272.089 L 304.800 273.486 301.549 273.709 C 297.477 273.988,297.211 274.242,296.916 278.141 L 296.685 281.200 293.431 281.200 C 289.199 281.200,288.800 281.597,288.800 285.805 L 288.800 288.800 282.200 288.800 C 278.067 288.800,275.600 288.949,275.600 289.200 C 275.600 289.420,275.336 289.600,275.014 289.600 C 274.048 289.600,273.600 290.986,273.600 293.974 L 273.600 296.800 266.819 296.800 C 259.214 296.800,258.000 297.078,258.000 298.820 C 258.000 299.594,257.582 300.244,256.561 301.056 C 255.769 301.685,254.873 302.679,254.569 303.263 L 254.017 304.327 242.509 304.487 C 228.189 304.685,228.448 304.590,227.787 309.900 L 227.525 312.000 185.629 312.000 C 141.114 312.000,139.980 312.045,138.006 313.875 C 137.457 314.384,136.878 314.800,136.720 314.800 C 136.561 314.800,136.208 315.880,135.936 317.200 L 135.440 319.600 133.170 319.600 C 128.231 319.600,127.600 320.212,127.600 325.002 L 127.600 327.485 122.500 327.719 C 116.659 327.986,114.604 328.466,113.945 329.718 C 113.689 330.203,113.322 330.704,113.130 330.830 C 112.937 330.957,112.669 331.992,112.534 333.130 L 112.289 335.200 108.644 335.214 C 101.003 335.244,97.958 336.743,97.407 340.746 L 97.132 342.749 90.188 342.875 C 81.745 343.027,81.519 343.148,81.263 347.682 L 81.110 350.400 73.055 350.330 C 67.170 350.279,65.970 350.198,68.600 350.030 C 73.292 349.730,73.200 349.814,73.200 345.817 L 73.200 342.482 76.567 342.341 C 80.716 342.167,80.571 342.325,80.737 337.820 L 80.874 334.104 82.937 333.890 C 87.797 333.386,88.003 332.881,88.288 320.753 L 88.500 311.706 91.319 311.444 C 95.950 311.013,95.950 311.013,95.965 294.400 C 95.981 275.252,95.627 274.000,90.192 274.000 L 88.503 274.000 88.316 270.779 C 88.078 266.661,87.773 266.342,83.827 266.089 L 80.800 265.895 80.753 263.847 C 80.670 260.280,80.350 259.444,78.900 259.017 C 78.185 258.807,77.600 258.492,77.600 258.317 C 77.600 258.143,76.610 258.000,75.400 258.000 L 73.200 258.000 73.200 255.218 C 73.200 251.237,72.328 250.400,68.182 250.400 L 65.200 250.400 65.200 247.049 C 65.200 242.964,65.111 242.872,60.981 242.718 L 57.800 242.600 57.600 235.719 C 57.364 227.596,57.506 227.856,53.205 227.661 L 50.046 227.517 49.865 219.659 C 49.680 211.640,49.390 208.800,48.756 208.800 C 48.560 208.800,48.400 208.539,48.400 208.221 C 48.400 207.325,46.681 205.681,45.480 205.428 C 44.886 205.302,43.950 205.107,43.400 204.992 L 42.400 204.785 42.406 175.892 C 42.412 146.328,42.416 146.265,44.038 145.456 C 44.558 145.197,45.197 144.558,45.456 144.038 C 46.061 142.825,46.729 142.414,48.110 142.406 C 49.753 142.397,50.000 141.250,50.000 133.626 L 50.000 126.903 52.750 126.632 C 57.227 126.191,57.552 125.522,57.583 116.700 L 57.600 111.600 60.700 111.594 C 64.898 111.586,64.972 111.516,65.141 107.415 C 65.277 104.117,65.315 104.000,66.241 104.000 C 66.768 104.000,67.200 103.820,67.200 103.600 C 67.200 103.380,67.728 103.200,68.374 103.200 C 70.111 103.200,71.650 102.497,71.885 101.595 C 72.000 101.158,72.231 100.800,72.400 100.800 C 72.569 100.800,72.836 99.585,72.995 98.100 C 73.292 95.317,73.602 94.817,75.036 94.806 C 76.365 94.796,78.744 92.507,79.034 90.958 C 79.174 90.211,79.449 89.600,79.645 89.600 C 79.840 89.600,80.000 89.349,80.000 89.043 C 80.000 88.372,80.519 88.151,82.955 87.786 C 85.567 87.394,87.430 85.492,87.794 82.845 L 88.062 80.896 90.531 80.624 C 95.125 80.116,95.317 79.930,95.827 75.500 L 96.092 73.200 99.064 73.200 C 103.233 73.200,104.000 72.434,104.000 68.272 L 104.000 65.307 110.100 65.108 C 118.388 64.836,118.428 64.814,119.011 59.940 L 119.282 57.681 125.741 57.509 C 133.119 57.314,133.486 57.216,133.834 55.361 C 133.974 54.613,134.249 54.000,134.445 54.000 C 134.640 54.000,134.800 53.118,134.800 52.040 L 134.800 50.081 144.700 49.891 C 157.351 49.649,156.833 49.860,157.427 44.700 L 157.692 42.400 196.646 42.400 L 235.600 42.400 235.602 43.700 M168.200 73.951 C 166.756 74.259,166.057 75.911,166.023 79.100 L 166.000 81.200 163.029 81.200 C 160.059 81.200,159.944 81.245,158.500 82.969 C 158.200 83.327,158.000 84.736,158.000 86.492 L 158.000 89.417 155.579 89.877 C 152.653 90.433,152.101 90.846,151.753 92.740 C 151.605 93.543,151.286 94.328,151.042 94.485 C 150.534 94.813,150.390 148.923,150.896 149.429 C 151.058 149.591,151.867 149.834,152.693 149.969 C 153.805 150.149,154.331 150.496,154.718 151.303 C 155.005 151.903,155.636 152.604,156.120 152.862 C 157.775 153.743,157.974 154.415,157.987 159.153 C 158.003 164.923,158.224 165.200,162.812 165.200 L 165.901 165.200 166.064 169.900 C 166.153 172.485,166.157 176.065,166.073 177.856 L 165.919 181.112 161.689 181.269 C 158.839 181.374,157.405 181.584,157.296 181.913 C 157.206 182.181,156.719 182.400,156.213 182.400 C 153.699 182.400,151.600 184.436,151.600 186.874 C 151.600 188.426,150.667 188.800,146.800 188.800 C 144.083 188.800,142.989 188.954,142.543 189.400 C 142.213 189.730,141.500 190.000,140.959 190.000 C 139.475 190.000,137.200 191.077,137.200 191.780 C 137.200 192.121,137.032 192.400,136.827 192.400 C 136.418 192.400,136.201 193.025,135.817 195.300 L 135.564 196.800 132.210 196.800 C 127.840 196.800,127.600 197.031,127.600 201.229 L 127.600 204.400 124.374 204.400 C 119.728 204.400,119.600 204.513,119.600 208.614 L 119.600 212.000 117.700 212.002 C 111.992 212.009,112.005 211.971,112.002 228.074 C 112.000 240.712,112.182 242.400,113.551 242.400 C 114.039 242.400,114.468 242.819,114.719 243.540 C 115.225 244.992,116.996 246.771,118.436 247.273 C 119.224 247.547,119.589 247.977,119.676 248.731 C 119.800 249.799,119.803 249.800,123.700 249.914 L 127.600 250.029 127.606 253.114 C 127.615 257.739,126.576 257.370,140.223 257.600 L 152.075 257.800 152.597 259.318 C 153.114 260.824,154.969 262.799,155.867 262.800 C 156.123 262.800,156.393 262.935,156.467 263.100 C 157.316 265.012,156.920 264.991,195.200 265.132 C 240.445 265.298,240.223 265.323,241.036 260.000 C 241.415 257.519,240.934 257.613,253.282 257.606 L 264.364 257.600 265.364 256.600 C 265.914 256.050,266.480 255.600,266.621 255.600 C 267.314 255.600,269.600 254.252,269.600 253.843 C 269.600 253.587,269.960 253.070,270.400 252.693 C 270.840 252.316,271.200 251.657,271.200 251.228 C 271.200 250.169,271.486 250.046,274.940 249.608 C 280.649 248.884,280.769 248.421,280.788 227.149 C 280.802 210.775,281.165 212.089,276.581 211.918 L 273.400 211.800 273.200 208.200 L 273.000 204.600 270.000 204.499 C 264.969 204.329,265.200 204.515,265.200 200.635 C 265.200 196.703,265.310 196.800,260.819 196.800 L 257.703 196.800 257.432 194.050 C 257.100 190.680,256.645 190.010,254.486 189.721 C 253.559 189.596,252.800 189.338,252.800 189.147 C 252.800 188.956,250.479 188.800,247.643 188.800 C 241.959 188.800,242.000 188.819,242.000 186.167 C 242.000 185.415,241.820 184.800,241.600 184.800 C 241.380 184.800,241.200 184.476,241.200 184.080 C 241.200 183.170,240.445 182.400,239.553 182.400 C 239.176 182.400,238.801 182.203,238.721 181.962 C 238.628 181.684,236.415 181.442,232.687 181.303 L 226.800 181.082 226.800 176.787 L 226.800 172.491 228.652 172.213 C 232.290 171.668,233.266 170.698,233.807 167.095 C 233.963 166.053,234.250 165.200,234.445 165.200 C 234.640 165.200,234.800 163.513,234.800 161.452 L 234.800 157.703 237.544 157.433 C 239.838 157.207,240.445 156.985,241.244 156.081 L 242.200 155.000 242.320 123.800 C 242.450 89.968,242.456 90.130,240.982 89.760 C 240.442 89.624,240.000 89.353,240.000 89.157 C 240.000 88.960,238.830 88.800,237.400 88.800 L 234.800 88.800 234.800 85.805 C 234.800 81.593,234.403 81.200,230.153 81.200 L 226.885 81.200 226.738 77.964 C 226.618 75.337,226.446 74.623,225.819 74.164 C 225.006 73.570,170.922 73.370,168.200 73.951 " stroke="none" fill="#000000" fill-rule="evenodd"></path><path id="path3" d="M150.000 2.172 L 150.000 4.345 136.003 4.472 L 122.007 4.600 121.018 5.667 C 120.264 6.480,119.965 7.359,119.759 9.367 L 119.490 12.000 112.425 12.000 C 104.874 12.000,104.405 12.116,104.394 13.980 C 104.386 15.251,104.154 15.570,102.369 16.764 C 101.582 17.291,100.772 18.099,100.569 18.561 C 100.227 19.339,99.838 19.408,95.218 19.513 C 89.094 19.652,88.800 19.846,88.800 23.751 C 88.800 27.819,89.156 27.600,82.544 27.600 C 74.177 27.600,73.600 27.964,73.600 33.250 L 73.600 35.200 70.280 35.200 C 66.108 35.200,66.000 35.308,66.000 39.480 L 66.000 42.800 62.024 42.800 C 59.804 42.800,57.938 42.977,57.800 43.200 C 57.664 43.420,57.023 43.600,56.376 43.600 C 55.729 43.600,55.200 43.780,55.200 44.000 C 55.200 44.220,54.954 44.400,54.654 44.400 C 53.379 44.400,52.046 46.018,51.762 47.911 C 51.459 49.932,50.744 50.767,49.300 50.787 C 48.805 50.794,48.400 50.958,48.400 51.150 C 48.400 51.343,47.827 51.615,47.126 51.755 C 45.701 52.040,44.400 53.046,44.400 53.862 C 44.400 54.158,44.240 54.400,44.045 54.400 C 43.850 54.400,43.570 55.208,43.422 56.195 C 43.110 58.272,42.350 59.200,40.959 59.200 C 39.505 59.200,37.200 60.271,37.200 60.946 C 37.200 61.269,37.003 61.599,36.762 61.679 C 36.132 61.889,35.567 64.801,35.264 69.400 L 35.000 73.400 31.613 73.518 C 27.584 73.657,27.614 73.624,27.606 77.858 L 27.600 81.115 24.471 81.258 C 19.851 81.468,19.825 81.509,19.693 88.970 C 19.544 97.388,19.816 96.800,16.072 96.800 C 11.843 96.800,12.000 96.490,12.000 104.838 L 12.000 111.915 8.818 112.060 C 4.333 112.263,4.619 111.462,4.482 124.219 L 4.364 135.200 2.182 135.200 L 0.000 135.200 0.000 177.000 L 0.000 218.800 2.154 218.800 L 4.307 218.800 4.508 228.100 C 4.756 239.571,5.217 241.200,8.219 241.200 C 8.538 241.200,8.800 241.380,8.800 241.600 C 8.800 241.820,9.520 242.000,10.400 242.000 L 12.000 242.000 12.013 245.900 C 12.042 254.538,12.827 256.701,16.060 257.058 C 19.833 257.474,19.600 257.215,19.600 260.994 C 19.600 265.017,19.782 265.200,23.802 265.200 C 27.433 265.200,27.434 265.201,27.698 271.881 C 28.006 279.651,28.183 279.930,33.251 280.623 L 35.102 280.876 35.286 284.053 C 35.513 287.976,35.625 288.087,39.585 288.317 L 42.800 288.503 42.800 291.375 C 42.800 295.411,43.129 295.754,47.164 295.938 C 50.940 296.109,51.384 296.623,48.100 297.020 C 43.429 297.585,43.231 297.931,42.919 306.060 L 42.694 311.920 39.565 312.062 C 35.641 312.240,35.440 312.444,35.260 316.418 L 35.115 319.600 32.258 319.606 C 28.164 319.615,27.600 320.235,27.600 324.734 L 27.600 327.520 23.985 327.660 C 19.658 327.828,19.614 327.872,19.606 332.100 L 19.600 335.200 16.280 335.200 C 12.110 335.200,12.000 335.310,12.000 339.465 L 12.000 342.770 8.300 342.885 L 4.600 343.000 4.485 346.700 L 4.370 350.400 2.185 350.400 L 0.000 350.400 0.000 373.200 L 0.000 396.000 43.546 396.000 C 86.486 396.000,87.106 395.989,88.109 395.200 C 88.669 394.760,89.413 394.400,89.763 394.400 C 90.113 394.400,90.400 394.242,90.400 394.049 C 90.400 393.855,90.925 393.480,91.566 393.214 C 92.209 392.948,92.948 392.209,93.214 391.566 C 93.480 390.925,93.843 390.400,94.021 390.400 C 94.199 390.400,94.402 389.995,94.472 389.500 C 94.599 388.608,94.675 388.598,102.668 388.400 C 111.994 388.169,111.343 388.470,111.600 384.268 L 111.800 381.000 119.200 380.777 C 127.421 380.529,126.800 380.607,126.800 379.827 C 126.800 379.512,127.205 379.132,127.700 378.982 C 129.588 378.413,131.200 377.488,131.200 376.974 C 131.200 376.680,131.476 376.285,131.814 376.096 C 132.152 375.907,132.570 375.223,132.742 374.576 L 133.056 373.400 136.928 373.286 C 139.066 373.222,140.800 372.998,140.800 372.786 C 140.800 372.573,141.051 372.400,141.357 372.400 C 142.174 372.400,142.400 371.484,142.400 368.167 L 142.400 365.200 147.500 365.183 C 156.350 365.152,157.043 364.826,157.446 360.498 L 157.715 357.600 161.029 357.600 C 163.487 357.600,164.503 357.440,164.962 356.981 C 165.483 356.459,165.725 356.444,166.491 356.881 C 167.802 357.629,229.517 357.643,231.621 356.895 C 233.242 356.319,234.000 354.795,234.000 352.114 C 234.000 349.907,233.324 350.000,249.433 350.000 C 266.152 350.000,265.200 350.263,265.200 345.643 C 265.200 342.177,264.501 342.401,275.333 342.396 C 288.124 342.389,287.872 342.483,288.284 337.563 L 288.516 334.800 295.058 334.800 C 298.656 334.800,301.600 334.641,301.600 334.447 C 301.600 334.252,301.960 333.999,302.400 333.884 C 302.840 333.769,303.200 333.388,303.200 333.037 C 303.200 332.687,303.380 332.400,303.600 332.400 C 303.828 332.400,304.000 331.218,304.000 329.654 L 304.000 326.909 309.930 326.718 C 318.047 326.458,318.318 326.290,319.030 321.100 L 319.291 319.200 322.345 319.194 C 326.493 319.186,326.572 319.111,326.741 315.015 L 326.882 311.600 330.208 311.600 C 334.192 311.600,334.800 311.409,334.800 310.157 C 334.800 309.631,334.967 309.200,335.171 309.200 C 335.376 309.200,335.788 308.975,336.088 308.700 C 336.388 308.425,336.974 308.008,337.390 307.773 C 337.806 307.539,338.339 307.006,338.573 306.590 C 338.808 306.174,339.225 305.588,339.500 305.288 C 339.775 304.988,340.000 304.576,340.000 304.371 C 340.000 304.167,340.540 304.000,341.200 304.000 C 341.900 304.000,342.400 303.789,342.400 303.495 C 342.400 303.215,343.338 302.767,344.500 302.491 C 346.742 301.959,347.852 300.958,348.259 299.100 C 348.392 298.495,348.658 298.000,348.850 298.000 C 349.043 298.000,349.200 297.627,349.200 297.171 C 349.200 296.009,349.897 295.472,352.175 294.878 C 353.262 294.594,354.391 294.020,354.684 293.601 C 354.978 293.182,355.479 292.578,355.798 292.259 C 356.117 291.940,356.496 290.941,356.640 290.040 C 356.784 289.138,357.052 288.400,357.236 288.400 C 357.420 288.400,357.622 286.735,357.685 284.700 L 357.800 281.000 361.400 280.800 L 365.000 280.600 365.115 276.900 L 365.230 273.200 368.044 273.200 C 369.932 273.200,371.043 273.014,371.421 272.636 C 371.732 272.325,372.214 271.996,372.493 271.903 C 372.838 271.789,373.064 270.469,373.200 267.772 C 373.376 264.281,373.491 263.791,374.161 263.663 C 374.579 263.583,375.288 263.176,375.736 262.759 C 376.184 262.342,376.754 262.000,377.001 262.000 C 377.498 262.000,378.800 259.521,378.800 258.577 C 378.800 258.249,379.250 257.809,379.800 257.600 C 380.783 257.226,380.800 257.147,380.800 252.797 C 380.800 248.937,380.889 248.347,381.500 248.153 C 384.450 247.218,386.400 245.330,386.400 243.411 C 386.400 243.104,386.741 242.746,387.157 242.614 C 388.262 242.263,388.389 241.338,388.395 233.556 L 388.400 226.511 390.319 226.284 C 396.289 225.577,395.995 228.180,395.995 176.000 C 395.995 124.966,396.335 128.591,391.492 127.912 L 388.492 127.491 388.293 118.445 C 388.021 106.051,387.453 104.800,382.103 104.800 L 380.800 104.800 380.787 101.300 C 380.771 97.164,380.212 92.386,379.703 92.043 C 379.504 91.909,379.230 91.496,379.093 91.125 C 378.816 90.374,376.498 89.606,374.500 89.602 L 373.200 89.600 373.200 86.029 C 373.200 81.377,373.030 81.200,368.571 81.200 L 365.200 81.200 365.186 77.700 C 365.156 70.153,363.668 67.159,359.675 66.610 L 357.712 66.340 357.460 63.270 C 357.177 59.839,356.455 58.800,354.356 58.800 C 353.720 58.800,353.200 58.620,353.200 58.400 C 353.200 58.180,352.506 58.000,351.658 58.000 L 350.116 58.000 349.882 55.495 C 349.604 52.523,349.298 51.600,348.591 51.600 C 348.302 51.600,348.006 51.417,347.931 51.194 C 347.857 50.971,346.602 50.677,345.144 50.541 L 342.491 50.293 342.220 47.892 C 342.070 46.571,341.706 45.249,341.410 44.953 C 341.114 44.656,340.805 44.214,340.723 43.969 C 340.549 43.448,337.713 42.842,335.327 42.817 C 333.562 42.799,333.534 42.767,333.006 40.135 C 332.840 39.309,332.275 38.545,331.379 37.935 C 330.623 37.421,330.004 36.865,330.003 36.700 C 330.001 36.535,329.595 36.399,329.100 36.398 C 328.605 36.396,327.684 36.126,327.054 35.798 C 326.304 35.406,324.752 35.200,322.554 35.200 L 319.200 35.200 319.194 32.100 C 319.185 27.820,319.192 27.826,314.426 27.663 L 310.422 27.526 310.160 26.063 C 309.667 23.322,307.721 21.200,305.699 21.200 C 305.272 21.200,304.507 20.840,304.000 20.400 C 303.222 19.726,302.503 19.600,299.419 19.600 L 295.760 19.600 295.266 17.206 C 294.939 15.623,294.516 14.676,294.017 14.409 C 293.602 14.187,293.016 13.759,292.716 13.458 C 291.785 12.528,287.228 12.000,280.120 12.000 L 273.305 12.000 273.109 8.948 C 272.817 4.400,273.104 4.492,259.100 4.440 L 248.400 4.400 248.400 2.200 L 248.400 0.000 199.200 0.000 L 150.000 0.000 150.000 2.172 M235.602 43.700 C 235.605 45.367,236.332 48.000,236.790 48.000 C 236.984 48.000,237.412 48.269,237.740 48.597 C 238.669 49.526,243.119 49.983,251.300 49.992 L 258.800 50.000 258.800 51.906 C 258.800 56.424,259.932 57.088,268.269 57.465 C 274.440 57.745,274.379 57.716,274.395 60.300 C 274.398 60.795,274.558 61.200,274.751 61.200 C 274.945 61.200,275.326 61.739,275.599 62.398 C 275.978 63.314,276.486 63.697,277.748 64.024 C 278.657 64.259,279.953 64.620,280.628 64.826 C 281.304 65.032,283.419 65.200,285.328 65.200 L 288.800 65.200 288.800 67.600 C 288.800 68.933,288.978 70.000,289.200 70.000 C 289.420 70.000,289.600 70.324,289.600 70.720 C 289.600 71.642,290.358 72.400,291.280 72.400 C 291.676 72.400,292.000 72.572,292.000 72.782 C 292.000 72.992,293.211 73.217,294.692 73.282 L 297.384 73.400 297.716 75.400 C 298.063 77.491,299.464 79.156,300.900 79.186 C 301.285 79.194,301.600 79.380,301.600 79.600 C 301.600 79.820,302.104 80.000,302.720 80.000 C 303.336 80.000,304.012 80.172,304.223 80.383 C 304.434 80.594,306.225 80.819,308.203 80.883 L 311.800 81.000 312.000 84.600 L 312.200 88.200 315.900 88.315 L 319.600 88.430 319.600 92.052 C 319.600 95.266,319.685 95.697,320.354 95.872 C 320.864 96.005,321.188 96.565,321.352 97.593 C 321.684 99.665,323.952 101.919,326.042 102.253 L 327.600 102.502 327.610 104.751 C 327.632 110.023,328.432 111.149,332.394 111.481 L 335.200 111.716 335.200 115.271 C 335.200 118.061,335.329 118.875,335.800 119.055 C 336.130 119.182,336.400 119.701,336.400 120.209 C 336.400 120.718,336.552 121.193,336.738 121.267 C 336.924 121.340,337.330 121.938,337.642 122.596 C 337.953 123.254,338.746 124.047,339.404 124.358 C 340.062 124.670,340.660 125.076,340.733 125.262 C 340.807 125.448,341.302 125.600,341.833 125.600 C 342.795 125.600,342.800 125.623,342.813 129.900 C 342.833 136.335,343.326 139.477,344.464 140.414 C 344.979 140.838,345.606 141.358,345.858 141.569 C 346.110 141.780,347.190 142.008,348.258 142.076 L 350.200 142.200 350.302 177.100 L 350.404 212.000 349.022 212.000 C 343.411 212.000,343.196 212.321,342.854 221.200 L 342.600 227.800 341.000 227.901 C 336.145 228.208,335.689 228.948,335.328 237.100 L 335.075 242.800 332.214 242.800 C 328.193 242.800,327.845 243.132,327.663 247.149 L 327.517 250.370 325.158 250.637 C 323.861 250.783,322.800 251.060,322.800 251.252 C 322.800 251.443,322.562 251.600,322.272 251.600 C 321.128 251.600,320.108 253.466,319.829 256.067 L 319.552 258.650 317.175 259.141 C 315.320 259.524,314.646 259.870,314.108 260.716 C 313.729 261.312,313.305 261.890,313.166 262.000 C 313.027 262.110,312.751 263.100,312.553 264.200 L 312.193 266.200 310.080 266.458 C 305.935 266.965,304.800 268.176,304.800 272.089 L 304.800 273.486 301.549 273.709 C 297.477 273.988,297.211 274.242,296.916 278.141 L 296.685 281.200 293.431 281.200 C 289.199 281.200,288.800 281.597,288.800 285.805 L 288.800 288.800 282.200 288.800 C 278.067 288.800,275.600 288.949,275.600 289.200 C 275.600 289.420,275.336 289.600,275.014 289.600 C 274.048 289.600,273.600 290.986,273.600 293.974 L 273.600 296.800 266.819 296.800 C 259.214 296.800,258.000 297.078,258.000 298.820 C 258.000 299.594,257.582 300.244,256.561 301.056 C 255.769 301.685,254.873 302.679,254.569 303.263 L 254.017 304.327 242.509 304.487 C 228.189 304.685,228.448 304.590,227.787 309.900 L 227.525 312.000 185.629 312.000 C 141.114 312.000,139.980 312.045,138.006 313.875 C 137.457 314.384,136.878 314.800,136.720 314.800 C 136.561 314.800,136.208 315.880,135.936 317.200 L 135.440 319.600 133.170 319.600 C 128.231 319.600,127.600 320.212,127.600 325.002 L 127.600 327.485 122.500 327.719 C 116.659 327.986,114.604 328.466,113.945 329.718 C 113.689 330.203,113.322 330.704,113.130 330.830 C 112.937 330.957,112.669 331.992,112.534 333.130 L 112.289 335.200 108.644 335.214 C 101.003 335.244,97.958 336.743,97.407 340.746 L 97.132 342.749 90.188 342.875 C 81.745 343.027,81.519 343.148,81.263 347.682 L 81.110 350.400 73.055 350.330 C 67.170 350.279,65.970 350.198,68.600 350.030 C 73.292 349.730,73.200 349.814,73.200 345.817 L 73.200 342.482 76.567 342.341 C 80.716 342.167,80.571 342.325,80.737 337.820 L 80.874 334.104 82.937 333.890 C 87.797 333.386,88.003 332.881,88.288 320.753 L 88.500 311.706 91.319 311.444 C 95.950 311.013,95.950 311.013,95.965 294.400 C 95.981 275.252,95.627 274.000,90.192 274.000 L 88.503 274.000 88.316 270.779 C 88.078 266.661,87.773 266.342,83.827 266.089 L 80.800 265.895 80.753 263.847 C 80.670 260.280,80.350 259.444,78.900 259.017 C 78.185 258.807,77.600 258.492,77.600 258.317 C 77.600 258.143,76.610 258.000,75.400 258.000 L 73.200 258.000 73.200 255.218 C 73.200 251.237,72.328 250.400,68.182 250.400 L 65.200 250.400 65.200 247.049 C 65.200 242.964,65.111 242.872,60.981 242.718 L 57.800 242.600 57.600 235.719 C 57.364 227.596,57.506 227.856,53.205 227.661 L 50.046 227.517 49.865 219.659 C 49.680 211.640,49.390 208.800,48.756 208.800 C 48.560 208.800,48.400 208.539,48.400 208.221 C 48.400 207.325,46.681 205.681,45.480 205.428 C 44.886 205.302,43.950 205.107,43.400 204.992 L 42.400 204.785 42.406 175.892 C 42.412 146.328,42.416 146.265,44.038 145.456 C 44.558 145.197,45.197 144.558,45.456 144.038 C 46.061 142.825,46.729 142.414,48.110 142.406 C 49.753 142.397,50.000 141.250,50.000 133.626 L 50.000 126.903 52.750 126.632 C 57.227 126.191,57.552 125.522,57.583 116.700 L 57.600 111.600 60.700 111.594 C 64.898 111.586,64.972 111.516,65.141 107.415 C 65.277 104.117,65.315 104.000,66.241 104.000 C 66.768 104.000,67.200 103.820,67.200 103.600 C 67.200 103.380,67.728 103.200,68.374 103.200 C 70.111 103.200,71.650 102.497,71.885 101.595 C 72.000 101.158,72.231 100.800,72.400 100.800 C 72.569 100.800,72.836 99.585,72.995 98.100 C 73.292 95.317,73.602 94.817,75.036 94.806 C 76.365 94.796,78.744 92.507,79.034 90.958 C 79.174 90.211,79.449 89.600,79.645 89.600 C 79.840 89.600,80.000 89.349,80.000 89.043 C 80.000 88.372,80.519 88.151,82.955 87.786 C 85.567 87.394,87.430 85.492,87.794 82.845 L 88.062 80.896 90.531 80.624 C 95.125 80.116,95.317 79.930,95.827 75.500 L 96.092 73.200 99.064 73.200 C 103.233 73.200,104.000 72.434,104.000 68.272 L 104.000 65.307 110.100 65.108 C 118.388 64.836,118.428 64.814,119.011 59.940 L 119.282 57.681 125.741 57.509 C 133.119 57.314,133.486 57.216,133.834 55.361 C 133.974 54.613,134.249 54.000,134.445 54.000 C 134.640 54.000,134.800 53.118,134.800 52.040 L 134.800 50.081 144.700 49.891 C 157.351 49.649,156.833 49.860,157.427 44.700 L 157.692 42.400 196.646 42.400 L 235.600 42.400 235.602 43.700 M168.200 73.951 C 166.756 74.259,166.057 75.911,166.023 79.100 L 166.000 81.200 163.029 81.200 C 160.059 81.200,159.944 81.245,158.500 82.969 C 158.200 83.327,158.000 84.736,158.000 86.492 L 158.000 89.417 155.579 89.877 C 152.653 90.433,152.101 90.846,151.753 92.740 C 151.605 93.543,151.286 94.328,151.042 94.485 C 150.534 94.813,150.390 148.923,150.896 149.429 C 151.058 149.591,151.867 149.834,152.693 149.969 C 153.805 150.149,154.331 150.496,154.718 151.303 C 155.005 151.903,155.636 152.604,156.120 152.862 C 157.775 153.743,157.974 154.415,157.987 159.153 C 158.003 164.923,158.224 165.200,162.812 165.200 L 165.901 165.200 166.064 169.900 C 166.153 172.485,166.157 176.065,166.073 177.856 L 165.919 181.112 161.689 181.269 C 158.839 181.374,157.405 181.584,157.296 181.913 C 157.206 182.181,156.719 182.400,156.213 182.400 C 153.699 182.400,151.600 184.436,151.600 186.874 C 151.600 188.426,150.667 188.800,146.800 188.800 C 144.083 188.800,142.989 188.954,142.543 189.400 C 142.213 189.730,141.500 190.000,140.959 190.000 C 139.475 190.000,137.200 191.077,137.200 191.780 C 137.200 192.121,137.032 192.400,136.827 192.400 C 136.418 192.400,136.201 193.025,135.817 195.300 L 135.564 196.800 132.210 196.800 C 127.840 196.800,127.600 197.031,127.600 201.229 L 127.600 204.400 124.374 204.400 C 119.728 204.400,119.600 204.513,119.600 208.614 L 119.600 212.000 117.700 212.002 C 111.992 212.009,112.005 211.971,112.002 228.074 C 112.000 240.712,112.182 242.400,113.551 242.400 C 114.039 242.400,114.468 242.819,114.719 243.540 C 115.225 244.992,116.996 246.771,118.436 247.273 C 119.224 247.547,119.589 247.977,119.676 248.731 C 119.800 249.799,119.803 249.800,123.700 249.914 L 127.600 250.029 127.606 253.114 C 127.615 257.739,126.576 257.370,140.223 257.600 L 152.075 257.800 152.597 259.318 C 153.114 260.824,154.969 262.799,155.867 262.800 C 156.123 262.800,156.393 262.935,156.467 263.100 C 157.316 265.012,156.920 264.991,195.200 265.132 C 240.445 265.298,240.223 265.323,241.036 260.000 C 241.415 257.519,240.934 257.613,253.282 257.606 L 264.364 257.600 265.364 256.600 C 265.914 256.050,266.480 255.600,266.621 255.600 C 267.314 255.600,269.600 254.252,269.600 253.843 C 269.600 253.587,269.960 253.070,270.400 252.693 C 270.840 252.316,271.200 251.657,271.200 251.228 C 271.200 250.169,271.486 250.046,274.940 249.608 C 280.649 248.884,280.769 248.421,280.788 227.149 C 280.802 210.775,281.165 212.089,276.581 211.918 L 273.400 211.800 273.200 208.200 L 273.000 204.600 270.000 204.499 C 264.969 204.329,265.200 204.515,265.200 200.635 C 265.200 196.703,265.310 196.800,260.819 196.800 L 257.703 196.800 257.432 194.050 C 257.100 190.680,256.645 190.010,254.486 189.721 C 253.559 189.596,252.800 189.338,252.800 189.147 C 252.800 188.956,250.479 188.800,247.643 188.800 C 241.959 188.800,242.000 188.819,242.000 186.167 C 242.000 185.415,241.820 184.800,241.600 184.800 C 241.380 184.800,241.200 184.476,241.200 184.080 C 241.200 183.170,240.445 182.400,239.553 182.400 C 239.176 182.400,238.801 182.203,238.721 181.962 C 238.628 181.684,236.415 181.442,232.687 181.303 L 226.800 181.082 226.800 176.787 L 226.800 172.491 228.652 172.213 C 232.290 171.668,233.266 170.698,233.807 167.095 C 233.963 166.053,234.250 165.200,234.445 165.200 C 234.640 165.200,234.800 163.513,234.800 161.452 L 234.800 157.703 237.544 157.433 C 239.838 157.207,240.445 156.985,241.244 156.081 L 242.200 155.000 242.320 123.800 C 242.450 89.968,242.456 90.130,240.982 89.760 C 240.442 89.624,240.000 89.353,240.000 89.157 C 240.000 88.960,238.830 88.800,237.400 88.800 L 234.800 88.800 234.800 85.805 C 234.800 81.593,234.403 81.200,230.153 81.200 L 226.885 81.200 226.738 77.964 C 226.618 75.337,226.446 74.623,225.819 74.164 C 225.006 73.570,170.922 73.370,168.200 73.951 " stroke="none" fill="#000000" fill-rule="evenodd"></path><path id="path4" d="M150.000 2.172 L 150.000 4.345 136.003 4.472 L 122.007 4.600 121.018 5.667 C 120.264 6.480,119.965 7.359,119.759 9.367 L 119.490 12.000 112.425 12.000 C 104.874 12.000,104.405 12.116,104.394 13.980 C 104.386 15.251,104.154 15.570,102.369 16.764 C 101.582 17.291,100.772 18.099,100.569 18.561 C 100.227 19.339,99.838 19.408,95.218 19.513 C 89.094 19.652,88.800 19.846,88.800 23.751 C 88.800 27.819,89.156 27.600,82.544 27.600 C 74.177 27.600,73.600 27.964,73.600 33.250 L 73.600 35.200 70.280 35.200 C 66.108 35.200,66.000 35.308,66.000 39.480 L 66.000 42.800 62.024 42.800 C 59.804 42.800,57.938 42.977,57.800 43.200 C 57.664 43.420,57.023 43.600,56.376 43.600 C 55.729 43.600,55.200 43.780,55.200 44.000 C 55.200 44.220,54.954 44.400,54.654 44.400 C 53.379 44.400,52.046 46.018,51.762 47.911 C 51.459 49.932,50.744 50.767,49.300 50.787 C 48.805 50.794,48.400 50.958,48.400 51.150 C 48.400 51.343,47.827 51.615,47.126 51.755 C 45.701 52.040,44.400 53.046,44.400 53.862 C 44.400 54.158,44.240 54.400,44.045 54.400 C 43.850 54.400,43.570 55.208,43.422 56.195 C 43.110 58.272,42.350 59.200,40.959 59.200 C 39.505 59.200,37.200 60.271,37.200 60.946 C 37.200 61.269,37.003 61.599,36.762 61.679 C 36.132 61.889,35.567 64.801,35.264 69.400 L 35.000 73.400 31.613 73.518 C 27.584 73.657,27.614 73.624,27.606 77.858 L 27.600 81.115 24.471 81.258 C 19.851 81.468,19.825 81.509,19.693 88.970 C 19.544 97.388,19.816 96.800,16.072 96.800 C 11.843 96.800,12.000 96.490,12.000 104.838 L 12.000 111.915 8.818 112.060 C 4.333 112.263,4.619 111.462,4.482 124.219 L 4.364 135.200 2.182 135.200 L 0.000 135.200 0.000 177.000 L 0.000 218.800 2.154 218.800 L 4.307 218.800 4.508 228.100 C 4.756 239.571,5.217 241.200,8.219 241.200 C 8.538 241.200,8.800 241.380,8.800 241.600 C 8.800 241.820,9.520 242.000,10.400 242.000 L 12.000 242.000 12.013 245.900 C 12.042 254.538,12.827 256.701,16.060 257.058 C 19.833 257.474,19.600 257.215,19.600 260.994 C 19.600 265.017,19.782 265.200,23.802 265.200 C 27.433 265.200,27.434 265.201,27.698 271.881 C 28.006 279.651,28.183 279.930,33.251 280.623 L 35.102 280.876 35.286 284.053 C 35.513 287.976,35.625 288.087,39.585 288.317 L 42.800 288.503 42.800 291.375 C 42.800 295.411,43.129 295.754,47.164 295.938 C 50.940 296.109,51.384 296.623,48.100 297.020 C 43.429 297.585,43.231 297.931,42.919 306.060 L 42.694 311.920 39.565 312.062 C 35.641 312.240,35.440 312.444,35.260 316.418 L 35.115 319.600 32.258 319.606 C 28.164 319.615,27.600 320.235,27.600 324.734 L 27.600 327.520 23.985 327.660 C 19.658 327.828,19.614 327.872,19.606 332.100 L 19.600 335.200 16.280 335.200 C 12.110 335.200,12.000 335.310,12.000 339.465 L 12.000 342.770 8.300 342.885 L 4.600 343.000 4.485 346.700 L 4.370 350.400 2.185 350.400 L 0.000 350.400 0.000 373.200 L 0.000 396.000 43.546 396.000 C 86.486 396.000,87.106 395.989,88.109 395.200 C 88.669 394.760,89.413 394.400,89.763 394.400 C 90.113 394.400,90.400 394.242,90.400 394.049 C 90.400 393.855,90.925 393.480,91.566 393.214 C 92.209 392.948,92.948 392.209,93.214 391.566 C 93.480 390.925,93.843 390.400,94.021 390.400 C 94.199 390.400,94.402 389.995,94.472 389.500 C 94.599 388.608,94.675 388.598,102.668 388.400 C 111.994 388.169,111.343 388.470,111.600 384.268 L 111.800 381.000 119.200 380.777 C 127.421 380.529,126.800 380.607,126.800 379.827 C 126.800 379.512,127.205 379.132,127.700 378.982 C 129.588 378.413,131.200 377.488,131.200 376.974 C 131.200 376.680,131.476 376.285,131.814 376.096 C 132.152 375.907,132.570 375.223,132.742 374.576 L 133.056 373.400 136.928 373.286 C 139.066 373.222,140.800 372.998,140.800 372.786 C 140.800 372.573,141.051 372.400,141.357 372.400 C 142.174 372.400,142.400 371.484,142.400 368.167 L 142.400 365.200 147.500 365.183 C 156.350 365.152,157.043 364.826,157.446 360.498 L 157.715 357.600 161.029 357.600 C 163.487 357.600,164.503 357.440,164.962 356.981 C 165.483 356.459,165.725 356.444,166.491 356.881 C 167.802 357.629,229.517 357.643,231.621 356.895 C 233.242 356.319,234.000 354.795,234.000 352.114 C 234.000 349.907,233.324 350.000,249.433 350.000 C 266.152 350.000,265.200 350.263,265.200 345.643 C 265.200 342.177,264.501 342.401,275.333 342.396 C 288.124 342.389,287.872 342.483,288.284 337.563 L 288.516 334.800 295.058 334.800 C 298.656 334.800,301.600 334.641,301.600 334.447 C 301.600 334.252,301.960 333.999,302.400 333.884 C 302.840 333.769,303.200 333.388,303.200 333.037 C 303.200 332.687,303.380 332.400,303.600 332.400 C 303.828 332.400,304.000 331.218,304.000 329.654 L 304.000 326.909 309.930 326.718 C 318.047 326.458,318.318 326.290,319.030 321.100 L 319.291 319.200 322.345 319.194 C 326.493 319.186,326.572 319.111,326.741 315.015 L 326.882 311.600 330.208 311.600 C 334.192 311.600,334.800 311.409,334.800 310.157 C 334.800 309.631,334.967 309.200,335.171 309.200 C 335.376 309.200,335.788 308.975,336.088 308.700 C 336.388 308.425,336.974 308.008,337.390 307.773 C 337.806 307.539,338.339 307.006,338.573 306.590 C 338.808 306.174,339.225 305.588,339.500 305.288 C 339.775 304.988,340.000 304.576,340.000 304.371 C 340.000 304.167,340.540 304.000,341.200 304.000 C 341.900 304.000,342.400 303.789,342.400 303.495 C 342.400 303.215,343.338 302.767,344.500 302.491 C 346.742 301.959,347.852 300.958,348.259 299.100 C 348.392 298.495,348.658 298.000,348.850 298.000 C 349.043 298.000,349.200 297.627,349.200 297.171 C 349.200 296.009,349.897 295.472,352.175 294.878 C 353.262 294.594,354.391 294.020,354.684 293.601 C 354.978 293.182,355.479 292.578,355.798 292.259 C 356.117 291.940,356.496 290.941,356.640 290.040 C 356.784 289.138,357.052 288.400,357.236 288.400 C 357.420 288.400,357.622 286.735,357.685 284.700 L 357.800 281.000 361.400 280.800 L 365.000 280.600 365.115 276.900 L 365.230 273.200 368.044 273.200 C 369.932 273.200,371.043 273.014,371.421 272.636 C 371.732 272.325,372.214 271.996,372.493 271.903 C 372.838 271.789,373.064 270.469,373.200 267.772 C 373.376 264.281,373.491 263.791,374.161 263.663 C 374.579 263.583,375.288 263.176,375.736 262.759 C 376.184 262.342,376.754 262.000,377.001 262.000 C 377.498 262.000,378.800 259.521,378.800 258.577 C 378.800 258.249,379.250 257.809,379.800 257.600 C 380.783 257.226,380.800 257.147,380.800 252.797 C 380.800 248.937,380.889 248.347,381.500 248.153 C 384.450 247.218,386.400 245.330,386.400 243.411 C 386.400 243.104,386.741 242.746,387.157 242.614 C 388.262 242.263,388.389 241.338,388.395 233.556 L 388.400 226.511 390.319 226.284 C 396.289 225.577,395.995 228.180,395.995 176.000 C 395.995 124.966,396.335 128.591,391.492 127.912 L 388.492 127.491 388.293 118.445 C 388.021 106.051,387.453 104.800,382.103 104.800 L 380.800 104.800 380.787 101.300 C 380.771 97.164,380.212 92.386,379.703 92.043 C 379.504 91.909,379.230 91.496,379.093 91.125 C 378.816 90.374,376.498 89.606,374.500 89.602 L 373.200 89.600 373.200 86.029 C 373.200 81.377,373.030 81.200,368.571 81.200 L 365.200 81.200 365.186 77.700 C 365.156 70.153,363.668 67.159,359.675 66.610 L 357.712 66.340 357.460 63.270 C 357.177 59.839,356.455 58.800,354.356 58.800 C 353.720 58.800,353.200 58.620,353.200 58.400 C 353.200 58.180,352.506 58.000,351.658 58.000 L 350.116 58.000 349.882 55.495 C 349.604 52.523,349.298 51.600,348.591 51.600 C 348.302 51.600,348.006 51.417,347.931 51.194 C 347.857 50.971,346.602 50.677,345.144 50.541 L 342.491 50.293 342.220 47.892 C 342.070 46.571,341.706 45.249,341.410 44.953 C 341.114 44.656,340.805 44.214,340.723 43.969 C 340.549 43.448,337.713 42.842,335.327 42.817 C 333.562 42.799,333.534 42.767,333.006 40.135 C 332.840 39.309,332.275 38.545,331.379 37.935 C 330.623 37.421,330.004 36.865,330.003 36.700 C 330.001 36.535,329.595 36.399,329.100 36.398 C 328.605 36.396,327.684 36.126,327.054 35.798 C 326.304 35.406,324.752 35.200,322.554 35.200 L 319.200 35.200 319.194 32.100 C 319.185 27.820,319.192 27.826,314.426 27.663 L 310.422 27.526 310.160 26.063 C 309.667 23.322,307.721 21.200,305.699 21.200 C 305.272 21.200,304.507 20.840,304.000 20.400 C 303.222 19.726,302.503 19.600,299.419 19.600 L 295.760 19.600 295.266 17.206 C 294.939 15.623,294.516 14.676,294.017 14.409 C 293.602 14.187,293.016 13.759,292.716 13.458 C 291.785 12.528,287.228 12.000,280.120 12.000 L 273.305 12.000 273.109 8.948 C 272.817 4.400,273.104 4.492,259.100 4.440 L 248.400 4.400 248.400 2.200 L 248.400 0.000 199.200 0.000 L 150.000 0.000 150.000 2.172 M235.602 43.700 C 235.605 45.367,236.332 48.000,236.790 48.000 C 236.984 48.000,237.412 48.269,237.740 48.597 C 238.669 49.526,243.119 49.983,251.300 49.992 L 258.800 50.000 258.800 51.906 C 258.800 56.424,259.932 57.088,268.269 57.465 C 274.440 57.745,274.379 57.716,274.395 60.300 C 274.398 60.795,274.558 61.200,274.751 61.200 C 274.945 61.200,275.326 61.739,275.599 62.398 C 275.978 63.314,276.486 63.697,277.748 64.024 C 278.657 64.259,279.953 64.620,280.628 64.826 C 281.304 65.032,283.419 65.200,285.328 65.200 L 288.800 65.200 288.800 67.600 C 288.800 68.933,288.978 70.000,289.200 70.000 C 289.420 70.000,289.600 70.324,289.600 70.720 C 289.600 71.642,290.358 72.400,291.280 72.400 C 291.676 72.400,292.000 72.572,292.000 72.782 C 292.000 72.992,293.211 73.217,294.692 73.282 L 297.384 73.400 297.716 75.400 C 298.063 77.491,299.464 79.156,300.900 79.186 C 301.285 79.194,301.600 79.380,301.600 79.600 C 301.600 79.820,302.104 80.000,302.720 80.000 C 303.336 80.000,304.012 80.172,304.223 80.383 C 304.434 80.594,306.225 80.819,308.203 80.883 L 311.800 81.000 312.000 84.600 L 312.200 88.200 315.900 88.315 L 319.600 88.430 319.600 92.052 C 319.600 95.266,319.685 95.697,320.354 95.872 C 320.864 96.005,321.188 96.565,321.352 97.593 C 321.684 99.665,323.952 101.919,326.042 102.253 L 327.600 102.502 327.610 104.751 C 327.632 110.023,328.432 111.149,332.394 111.481 L 335.200 111.716 335.200 115.271 C 335.200 118.061,335.329 118.875,335.800 119.055 C 336.130 119.182,336.400 119.701,336.400 120.209 C 336.400 120.718,336.552 121.193,336.738 121.267 C 336.924 121.340,337.330 121.938,337.642 122.596 C 337.953 123.254,338.746 124.047,339.404 124.358 C 340.062 124.670,340.660 125.076,340.733 125.262 C 340.807 125.448,341.302 125.600,341.833 125.600 C 342.795 125.600,342.800 125.623,342.813 129.900 C 342.833 136.335,343.326 139.477,344.464 140.414 C 344.979 140.838,345.606 141.358,345.858 141.569 C 346.110 141.780,347.190 142.008,348.258 142.076 L 350.200 142.200 350.302 177.100 L 350.404 212.000 349.022 212.000 C 343.411 212.000,343.196 212.321,342.854 221.200 L 342.600 227.800 341.000 227.901 C 336.145 228.208,335.689 228.948,335.328 237.100 L 335.075 242.800 332.214 242.800 C 328.193 242.800,327.845 243.132,327.663 247.149 L 327.517 250.370 325.158 250.637 C 323.861 250.783,322.800 251.060,322.800 251.252 C 322.800 251.443,322.562 251.600,322.272 251.600 C 321.128 251.600,320.108 253.466,319.829 256.067 L 319.552 258.650 317.175 259.141 C 315.320 259.524,314.646 259.870,314.108 260.716 C 313.729 261.312,313.305 261.890,313.166 262.000 C 313.027 262.110,312.751 263.100,312.553 264.200 L 312.193 266.200 310.080 266.458 C 305.935 266.965,304.800 268.176,304.800 272.089 L 304.800 273.486 301.549 273.709 C 297.477 273.988,297.211 274.242,296.916 278.141 L 296.685 281.200 293.431 281.200 C 289.199 281.200,288.800 281.597,288.800 285.805 L 288.800 288.800 282.200 288.800 C 278.067 288.800,275.600 288.949,275.600 289.200 C 275.600 289.420,275.336 289.600,275.014 289.600 C 274.048 289.600,273.600 290.986,273.600 293.974 L 273.600 296.800 266.819 296.800 C 259.214 296.800,258.000 297.078,258.000 298.820 C 258.000 299.594,257.582 300.244,256.561 301.056 C 255.769 301.685,254.873 302.679,254.569 303.263 L 254.017 304.327 242.509 304.487 C 228.189 304.685,228.448 304.590,227.787 309.900 L 227.525 312.000 185.629 312.000 C 141.114 312.000,139.980 312.045,138.006 313.875 C 137.457 314.384,136.878 314.800,136.720 314.800 C 136.561 314.800,136.208 315.880,135.936 317.200 L 135.440 319.600 133.170 319.600 C 128.231 319.600,127.600 320.212,127.600 325.002 L 127.600 327.485 122.500 327.719 C 116.659 327.986,114.604 328.466,113.945 329.718 C 113.689 330.203,113.322 330.704,113.130 330.830 C 112.937 330.957,112.669 331.992,112.534 333.130 L 112.289 335.200 108.644 335.214 C 101.003 335.244,97.958 336.743,97.407 340.746 L 97.132 342.749 90.188 342.875 C 81.745 343.027,81.519 343.148,81.263 347.682 L 81.110 350.400 73.055 350.330 C 67.170 350.279,65.970 350.198,68.600 350.030 C 73.292 349.730,73.200 349.814,73.200 345.817 L 73.200 342.482 76.567 342.341 C 80.716 342.167,80.571 342.325,80.737 337.820 L 80.874 334.104 82.937 333.890 C 87.797 333.386,88.003 332.881,88.288 320.753 L 88.500 311.706 91.319 311.444 C 95.950 311.013,95.950 311.013,95.965 294.400 C 95.981 275.252,95.627 274.000,90.192 274.000 L 88.503 274.000 88.316 270.779 C 88.078 266.661,87.773 266.342,83.827 266.089 L 80.800 265.895 80.753 263.847 C 80.670 260.280,80.350 259.444,78.900 259.017 C 78.185 258.807,77.600 258.492,77.600 258.317 C 77.600 258.143,76.610 258.000,75.400 258.000 L 73.200 258.000 73.200 255.218 C 73.200 251.237,72.328 250.400,68.182 250.400 L 65.200 250.400 65.200 247.049 C 65.200 242.964,65.111 242.872,60.981 242.718 L 57.800 242.600 57.600 235.719 C 57.364 227.596,57.506 227.856,53.205 227.661 L 50.046 227.517 49.865 219.659 C 49.680 211.640,49.390 208.800,48.756 208.800 C 48.560 208.800,48.400 208.539,48.400 208.221 C 48.400 207.325,46.681 205.681,45.480 205.428 C 44.886 205.302,43.950 205.107,43.400 204.992 L 42.400 204.785 42.406 175.892 C 42.412 146.328,42.416 146.265,44.038 145.456 C 44.558 145.197,45.197 144.558,45.456 144.038 C 46.061 142.825,46.729 142.414,48.110 142.406 C 49.753 142.397,50.000 141.250,50.000 133.626 L 50.000 126.903 52.750 126.632 C 57.227 126.191,57.552 125.522,57.583 116.700 L 57.600 111.600 60.700 111.594 C 64.898 111.586,64.972 111.516,65.141 107.415 C 65.277 104.117,65.315 104.000,66.241 104.000 C 66.768 104.000,67.200 103.820,67.200 103.600 C 67.200 103.380,67.728 103.200,68.374 103.200 C 70.111 103.200,71.650 102.497,71.885 101.595 C 72.000 101.158,72.231 100.800,72.400 100.800 C 72.569 100.800,72.836 99.585,72.995 98.100 C 73.292 95.317,73.602 94.817,75.036 94.806 C 76.365 94.796,78.744 92.507,79.034 90.958 C 79.174 90.211,79.449 89.600,79.645 89.600 C 79.840 89.600,80.000 89.349,80.000 89.043 C 80.000 88.372,80.519 88.151,82.955 87.786 C 85.567 87.394,87.430 85.492,87.794 82.845 L 88.062 80.896 90.531 80.624 C 95.125 80.116,95.317 79.930,95.827 75.500 L 96.092 73.200 99.064 73.200 C 103.233 73.200,104.000 72.434,104.000 68.272 L 104.000 65.307 110.100 65.108 C 118.388 64.836,118.428 64.814,119.011 59.940 L 119.282 57.681 125.741 57.509 C 133.119 57.314,133.486 57.216,133.834 55.361 C 133.974 54.613,134.249 54.000,134.445 54.000 C 134.640 54.000,134.800 53.118,134.800 52.040 L 134.800 50.081 144.700 49.891 C 157.351 49.649,156.833 49.860,157.427 44.700 L 157.692 42.400 196.646 42.400 L 235.600 42.400 235.602 43.700 M168.200 73.951 C 166.756 74.259,166.057 75.911,166.023 79.100 L 166.000 81.200 163.029 81.200 C 160.059 81.200,159.944 81.245,158.500 82.969 C 158.200 83.327,158.000 84.736,158.000 86.492 L 158.000 89.417 155.579 89.877 C 152.653 90.433,152.101 90.846,151.753 92.740 C 151.605 93.543,151.286 94.328,151.042 94.485 C 150.534 94.813,150.390 148.923,150.896 149.429 C 151.058 149.591,151.867 149.834,152.693 149.969 C 153.805 150.149,154.331 150.496,154.718 151.303 C 155.005 151.903,155.636 152.604,156.120 152.862 C 157.775 153.743,157.974 154.415,157.987 159.153 C 158.003 164.923,158.224 165.200,162.812 165.200 L 165.901 165.200 166.064 169.900 C 166.153 172.485,166.157 176.065,166.073 177.856 L 165.919 181.112 161.689 181.269 C 158.839 181.374,157.405 181.584,157.296 181.913 C 157.206 182.181,156.719 182.400,156.213 182.400 C 153.699 182.400,151.600 184.436,151.600 186.874 C 151.600 188.426,150.667 188.800,146.800 188.800 C 144.083 188.800,142.989 188.954,142.543 189.400 C 142.213 189.730,141.500 190.000,140.959 190.000 C 139.475 190.000,137.200 191.077,137.200 191.780 C 137.200 192.121,137.032 192.400,136.827 192.400 C 136.418 192.400,136.201 193.025,135.817 195.300 L 135.564 196.800 132.210 196.800 C 127.840 196.800,127.600 197.031,127.600 201.229 L 127.600 204.400 124.374 204.400 C 119.728 204.400,119.600 204.513,119.600 208.614 L 119.600 212.000 117.700 212.002 C 111.992 212.009,112.005 211.971,112.002 228.074 C 112.000 240.712,112.182 242.400,113.551 242.400 C 114.039 242.400,114.468 242.819,114.719 243.540 C 115.225 244.992,116.996 246.771,118.436 247.273 C 119.224 247.547,119.589 247.977,119.676 248.731 C 119.800 249.799,119.803 249.800,123.700 249.914 L 127.600 250.029 127.606 253.114 C 127.615 257.739,126.576 257.370,140.223 257.600 L 152.075 257.800 152.597 259.318 C 153.114 260.824,154.969 262.799,155.867 262.800 C 156.123 262.800,156.393 262.935,156.467 263.100 C 157.316 265.012,156.920 264.991,195.200 265.132 C 240.445 265.298,240.223 265.323,241.036 260.000 C 241.415 257.519,240.934 257.613,253.282 257.606 L 264.364 257.600 265.364 256.600 C 265.914 256.050,266.480 255.600,266.621 255.600 C 267.314 255.600,269.600 254.252,269.600 253.843 C 269.600 253.587,269.960 253.070,270.400 252.693 C 270.840 252.316,271.200 251.657,271.200 251.228 C 271.200 250.169,271.486 250.046,274.940 249.608 C 280.649 248.884,280.769 248.421,280.788 227.149 C 280.802 210.775,281.165 212.089,276.581 211.918 L 273.400 211.800 273.200 208.200 L 273.000 204.600 270.000 204.499 C 264.969 204.329,265.200 204.515,265.200 200.635 C 265.200 196.703,265.310 196.800,260.819 196.800 L 257.703 196.800 257.432 194.050 C 257.100 190.680,256.645 190.010,254.486 189.721 C 253.559 189.596,252.800 189.338,252.800 189.147 C 252.800 188.956,250.479 188.800,247.643 188.800 C 241.959 188.800,242.000 188.819,242.000 186.167 C 242.000 185.415,241.820 184.800,241.600 184.800 C 241.380 184.800,241.200 184.476,241.200 184.080 C 241.200 183.170,240.445 182.400,239.553 182.400 C 239.176 182.400,238.801 182.203,238.721 181.962 C 238.628 181.684,236.415 181.442,232.687 181.303 L 226.800 181.082 226.800 176.787 L 226.800 172.491 228.652 172.213 C 232.290 171.668,233.266 170.698,233.807 167.095 C 233.963 166.053,234.250 165.200,234.445 165.200 C 234.640 165.200,234.800 163.513,234.800 161.452 L 234.800 157.703 237.544 157.433 C 239.838 157.207,240.445 156.985,241.244 156.081 L 242.200 155.000 242.320 123.800 C 242.450 89.968,242.456 90.130,240.982 89.760 C 240.442 89.624,240.000 89.353,240.000 89.157 C 240.000 88.960,238.830 88.800,237.400 88.800 L 234.800 88.800 234.800 85.805 C 234.800 81.593,234.403 81.200,230.153 81.200 L 226.885 81.200 226.738 77.964 C 226.618 75.337,226.446 74.623,225.819 74.164 C 225.006 73.570,170.922 73.370,168.200 73.951 " stroke="none" fill="#000000" fill-rule="evenodd"></path></g></svg>